%TF.GenerationSoftware,KiCad,Pcbnew,9.0.2*%
%TF.CreationDate,2025-08-06T07:46:06+01:00*%
%TF.ProjectId,smartpoopbucket,736d6172-7470-46f6-9f70-6275636b6574,rev?*%
%TF.SameCoordinates,Original*%
%TF.FileFunction,Legend,Bot*%
%TF.FilePolarity,Positive*%
%FSLAX46Y46*%
G04 Gerber Fmt 4.6, Leading zero omitted, Abs format (unit mm)*
G04 Created by KiCad (PCBNEW 9.0.2) date 2025-08-06 07:46:06*
%MOMM*%
%LPD*%
G01*
G04 APERTURE LIST*
%ADD10C,0.100000*%
G04 APERTURE END LIST*
D10*
X75391353Y-37495808D02*
X75200877Y-38162475D01*
X75200877Y-38162475D02*
X75010401Y-37686284D01*
X75010401Y-37686284D02*
X74819925Y-38162475D01*
X74819925Y-38162475D02*
X74629449Y-37495808D01*
X74248496Y-38162475D02*
X74248496Y-37162475D01*
X73819925Y-38162475D02*
X73819925Y-37638665D01*
X73819925Y-37638665D02*
X73867544Y-37543427D01*
X73867544Y-37543427D02*
X73962782Y-37495808D01*
X73962782Y-37495808D02*
X74105639Y-37495808D01*
X74105639Y-37495808D02*
X74200877Y-37543427D01*
X74200877Y-37543427D02*
X74248496Y-37591046D01*
X73343734Y-38162475D02*
X73343734Y-37495808D01*
X73343734Y-37162475D02*
X73391353Y-37210094D01*
X73391353Y-37210094D02*
X73343734Y-37257713D01*
X73343734Y-37257713D02*
X73296115Y-37210094D01*
X73296115Y-37210094D02*
X73343734Y-37162475D01*
X73343734Y-37162475D02*
X73343734Y-37257713D01*
X72724687Y-38162475D02*
X72819925Y-38114856D01*
X72819925Y-38114856D02*
X72867544Y-38019617D01*
X72867544Y-38019617D02*
X72867544Y-37162475D01*
X71962782Y-38114856D02*
X72058020Y-38162475D01*
X72058020Y-38162475D02*
X72248496Y-38162475D01*
X72248496Y-38162475D02*
X72343734Y-38114856D01*
X72343734Y-38114856D02*
X72391353Y-38019617D01*
X72391353Y-38019617D02*
X72391353Y-37638665D01*
X72391353Y-37638665D02*
X72343734Y-37543427D01*
X72343734Y-37543427D02*
X72248496Y-37495808D01*
X72248496Y-37495808D02*
X72058020Y-37495808D01*
X72058020Y-37495808D02*
X71962782Y-37543427D01*
X71962782Y-37543427D02*
X71915163Y-37638665D01*
X71915163Y-37638665D02*
X71915163Y-37733903D01*
X71915163Y-37733903D02*
X72391353Y-37829141D01*
X70819924Y-37495808D02*
X70581829Y-38162475D01*
X70343734Y-37495808D02*
X70581829Y-38162475D01*
X70581829Y-38162475D02*
X70677067Y-38400570D01*
X70677067Y-38400570D02*
X70724686Y-38448189D01*
X70724686Y-38448189D02*
X70819924Y-38495808D01*
X69819924Y-38162475D02*
X69915162Y-38114856D01*
X69915162Y-38114856D02*
X69962781Y-38067236D01*
X69962781Y-38067236D02*
X70010400Y-37971998D01*
X70010400Y-37971998D02*
X70010400Y-37686284D01*
X70010400Y-37686284D02*
X69962781Y-37591046D01*
X69962781Y-37591046D02*
X69915162Y-37543427D01*
X69915162Y-37543427D02*
X69819924Y-37495808D01*
X69819924Y-37495808D02*
X69677067Y-37495808D01*
X69677067Y-37495808D02*
X69581829Y-37543427D01*
X69581829Y-37543427D02*
X69534210Y-37591046D01*
X69534210Y-37591046D02*
X69486591Y-37686284D01*
X69486591Y-37686284D02*
X69486591Y-37971998D01*
X69486591Y-37971998D02*
X69534210Y-38067236D01*
X69534210Y-38067236D02*
X69581829Y-38114856D01*
X69581829Y-38114856D02*
X69677067Y-38162475D01*
X69677067Y-38162475D02*
X69819924Y-38162475D01*
X68629448Y-37495808D02*
X68629448Y-38162475D01*
X69058019Y-37495808D02*
X69058019Y-38019617D01*
X69058019Y-38019617D02*
X69010400Y-38114856D01*
X69010400Y-38114856D02*
X68915162Y-38162475D01*
X68915162Y-38162475D02*
X68772305Y-38162475D01*
X68772305Y-38162475D02*
X68677067Y-38114856D01*
X68677067Y-38114856D02*
X68629448Y-38067236D01*
X68105638Y-37162475D02*
X68200876Y-37352951D01*
X67677067Y-38162475D02*
X67677067Y-37495808D01*
X67677067Y-37686284D02*
X67629448Y-37591046D01*
X67629448Y-37591046D02*
X67581829Y-37543427D01*
X67581829Y-37543427D02*
X67486591Y-37495808D01*
X67486591Y-37495808D02*
X67391353Y-37495808D01*
X66677067Y-38114856D02*
X66772305Y-38162475D01*
X66772305Y-38162475D02*
X66962781Y-38162475D01*
X66962781Y-38162475D02*
X67058019Y-38114856D01*
X67058019Y-38114856D02*
X67105638Y-38019617D01*
X67105638Y-38019617D02*
X67105638Y-37638665D01*
X67105638Y-37638665D02*
X67058019Y-37543427D01*
X67058019Y-37543427D02*
X66962781Y-37495808D01*
X66962781Y-37495808D02*
X66772305Y-37495808D01*
X66772305Y-37495808D02*
X66677067Y-37543427D01*
X66677067Y-37543427D02*
X66629448Y-37638665D01*
X66629448Y-37638665D02*
X66629448Y-37733903D01*
X66629448Y-37733903D02*
X67105638Y-37829141D01*
X65438971Y-38162475D02*
X65438971Y-37162475D01*
X65010400Y-38162475D02*
X65010400Y-37638665D01*
X65010400Y-37638665D02*
X65058019Y-37543427D01*
X65058019Y-37543427D02*
X65153257Y-37495808D01*
X65153257Y-37495808D02*
X65296114Y-37495808D01*
X65296114Y-37495808D02*
X65391352Y-37543427D01*
X65391352Y-37543427D02*
X65438971Y-37591046D01*
X64153257Y-38114856D02*
X64248495Y-38162475D01*
X64248495Y-38162475D02*
X64438971Y-38162475D01*
X64438971Y-38162475D02*
X64534209Y-38114856D01*
X64534209Y-38114856D02*
X64581828Y-38019617D01*
X64581828Y-38019617D02*
X64581828Y-37638665D01*
X64581828Y-37638665D02*
X64534209Y-37543427D01*
X64534209Y-37543427D02*
X64438971Y-37495808D01*
X64438971Y-37495808D02*
X64248495Y-37495808D01*
X64248495Y-37495808D02*
X64153257Y-37543427D01*
X64153257Y-37543427D02*
X64105638Y-37638665D01*
X64105638Y-37638665D02*
X64105638Y-37733903D01*
X64105638Y-37733903D02*
X64581828Y-37829141D01*
X63677066Y-38162475D02*
X63677066Y-37495808D01*
X63677066Y-37686284D02*
X63629447Y-37591046D01*
X63629447Y-37591046D02*
X63581828Y-37543427D01*
X63581828Y-37543427D02*
X63486590Y-37495808D01*
X63486590Y-37495808D02*
X63391352Y-37495808D01*
X62677066Y-38114856D02*
X62772304Y-38162475D01*
X62772304Y-38162475D02*
X62962780Y-38162475D01*
X62962780Y-38162475D02*
X63058018Y-38114856D01*
X63058018Y-38114856D02*
X63105637Y-38019617D01*
X63105637Y-38019617D02*
X63105637Y-37638665D01*
X63105637Y-37638665D02*
X63058018Y-37543427D01*
X63058018Y-37543427D02*
X62962780Y-37495808D01*
X62962780Y-37495808D02*
X62772304Y-37495808D01*
X62772304Y-37495808D02*
X62677066Y-37543427D01*
X62677066Y-37543427D02*
X62629447Y-37638665D01*
X62629447Y-37638665D02*
X62629447Y-37733903D01*
X62629447Y-37733903D02*
X63105637Y-37829141D01*
X62200875Y-38067236D02*
X62153256Y-38114856D01*
X62153256Y-38114856D02*
X62200875Y-38162475D01*
X62200875Y-38162475D02*
X62248494Y-38114856D01*
X62248494Y-38114856D02*
X62200875Y-38067236D01*
X62200875Y-38067236D02*
X62200875Y-38162475D01*
X61724685Y-38067236D02*
X61677066Y-38114856D01*
X61677066Y-38114856D02*
X61724685Y-38162475D01*
X61724685Y-38162475D02*
X61772304Y-38114856D01*
X61772304Y-38114856D02*
X61724685Y-38067236D01*
X61724685Y-38067236D02*
X61724685Y-38162475D01*
X61248495Y-38067236D02*
X61200876Y-38114856D01*
X61200876Y-38114856D02*
X61248495Y-38162475D01*
X61248495Y-38162475D02*
X61296114Y-38114856D01*
X61296114Y-38114856D02*
X61248495Y-38067236D01*
X61248495Y-38067236D02*
X61248495Y-38162475D01*
X60010400Y-37495808D02*
X60010400Y-38162475D01*
X60010400Y-37591046D02*
X59962781Y-37543427D01*
X59962781Y-37543427D02*
X59867543Y-37495808D01*
X59867543Y-37495808D02*
X59724686Y-37495808D01*
X59724686Y-37495808D02*
X59629448Y-37543427D01*
X59629448Y-37543427D02*
X59581829Y-37638665D01*
X59581829Y-37638665D02*
X59581829Y-38162475D01*
X58962781Y-38162475D02*
X59058019Y-38114856D01*
X59058019Y-38114856D02*
X59105638Y-38067236D01*
X59105638Y-38067236D02*
X59153257Y-37971998D01*
X59153257Y-37971998D02*
X59153257Y-37686284D01*
X59153257Y-37686284D02*
X59105638Y-37591046D01*
X59105638Y-37591046D02*
X59058019Y-37543427D01*
X59058019Y-37543427D02*
X58962781Y-37495808D01*
X58962781Y-37495808D02*
X58819924Y-37495808D01*
X58819924Y-37495808D02*
X58724686Y-37543427D01*
X58724686Y-37543427D02*
X58677067Y-37591046D01*
X58677067Y-37591046D02*
X58629448Y-37686284D01*
X58629448Y-37686284D02*
X58629448Y-37971998D01*
X58629448Y-37971998D02*
X58677067Y-38067236D01*
X58677067Y-38067236D02*
X58724686Y-38114856D01*
X58724686Y-38114856D02*
X58819924Y-38162475D01*
X58819924Y-38162475D02*
X58962781Y-38162475D01*
X58343733Y-37495808D02*
X57962781Y-37495808D01*
X58200876Y-37162475D02*
X58200876Y-38019617D01*
X58200876Y-38019617D02*
X58153257Y-38114856D01*
X58153257Y-38114856D02*
X58058019Y-38162475D01*
X58058019Y-38162475D02*
X57962781Y-38162475D01*
X57629447Y-38162475D02*
X57629447Y-37495808D01*
X57629447Y-37162475D02*
X57677066Y-37210094D01*
X57677066Y-37210094D02*
X57629447Y-37257713D01*
X57629447Y-37257713D02*
X57581828Y-37210094D01*
X57581828Y-37210094D02*
X57629447Y-37162475D01*
X57629447Y-37162475D02*
X57629447Y-37257713D01*
X56724686Y-38114856D02*
X56819924Y-38162475D01*
X56819924Y-38162475D02*
X57010400Y-38162475D01*
X57010400Y-38162475D02*
X57105638Y-38114856D01*
X57105638Y-38114856D02*
X57153257Y-38067236D01*
X57153257Y-38067236D02*
X57200876Y-37971998D01*
X57200876Y-37971998D02*
X57200876Y-37686284D01*
X57200876Y-37686284D02*
X57153257Y-37591046D01*
X57153257Y-37591046D02*
X57105638Y-37543427D01*
X57105638Y-37543427D02*
X57010400Y-37495808D01*
X57010400Y-37495808D02*
X56819924Y-37495808D01*
X56819924Y-37495808D02*
X56724686Y-37543427D01*
X55915162Y-38114856D02*
X56010400Y-38162475D01*
X56010400Y-38162475D02*
X56200876Y-38162475D01*
X56200876Y-38162475D02*
X56296114Y-38114856D01*
X56296114Y-38114856D02*
X56343733Y-38019617D01*
X56343733Y-38019617D02*
X56343733Y-37638665D01*
X56343733Y-37638665D02*
X56296114Y-37543427D01*
X56296114Y-37543427D02*
X56200876Y-37495808D01*
X56200876Y-37495808D02*
X56010400Y-37495808D01*
X56010400Y-37495808D02*
X55915162Y-37543427D01*
X55915162Y-37543427D02*
X55867543Y-37638665D01*
X55867543Y-37638665D02*
X55867543Y-37733903D01*
X55867543Y-37733903D02*
X56343733Y-37829141D01*
X54677066Y-38162475D02*
X54677066Y-37162475D01*
X54248495Y-38162475D02*
X54248495Y-37638665D01*
X54248495Y-37638665D02*
X54296114Y-37543427D01*
X54296114Y-37543427D02*
X54391352Y-37495808D01*
X54391352Y-37495808D02*
X54534209Y-37495808D01*
X54534209Y-37495808D02*
X54629447Y-37543427D01*
X54629447Y-37543427D02*
X54677066Y-37591046D01*
X53629447Y-38162475D02*
X53724685Y-38114856D01*
X53724685Y-38114856D02*
X53772304Y-38067236D01*
X53772304Y-38067236D02*
X53819923Y-37971998D01*
X53819923Y-37971998D02*
X53819923Y-37686284D01*
X53819923Y-37686284D02*
X53772304Y-37591046D01*
X53772304Y-37591046D02*
X53724685Y-37543427D01*
X53724685Y-37543427D02*
X53629447Y-37495808D01*
X53629447Y-37495808D02*
X53486590Y-37495808D01*
X53486590Y-37495808D02*
X53391352Y-37543427D01*
X53391352Y-37543427D02*
X53343733Y-37591046D01*
X53343733Y-37591046D02*
X53296114Y-37686284D01*
X53296114Y-37686284D02*
X53296114Y-37971998D01*
X53296114Y-37971998D02*
X53343733Y-38067236D01*
X53343733Y-38067236D02*
X53391352Y-38114856D01*
X53391352Y-38114856D02*
X53486590Y-38162475D01*
X53486590Y-38162475D02*
X53629447Y-38162475D01*
X52962780Y-37495808D02*
X52772304Y-38162475D01*
X52772304Y-38162475D02*
X52581828Y-37686284D01*
X52581828Y-37686284D02*
X52391352Y-38162475D01*
X52391352Y-38162475D02*
X52200876Y-37495808D01*
X51200875Y-37495808D02*
X50819923Y-37495808D01*
X51058018Y-37162475D02*
X51058018Y-38019617D01*
X51058018Y-38019617D02*
X51010399Y-38114856D01*
X51010399Y-38114856D02*
X50915161Y-38162475D01*
X50915161Y-38162475D02*
X50819923Y-38162475D01*
X50486589Y-38162475D02*
X50486589Y-37162475D01*
X50058018Y-38162475D02*
X50058018Y-37638665D01*
X50058018Y-37638665D02*
X50105637Y-37543427D01*
X50105637Y-37543427D02*
X50200875Y-37495808D01*
X50200875Y-37495808D02*
X50343732Y-37495808D01*
X50343732Y-37495808D02*
X50438970Y-37543427D01*
X50438970Y-37543427D02*
X50486589Y-37591046D01*
X49200875Y-38114856D02*
X49296113Y-38162475D01*
X49296113Y-38162475D02*
X49486589Y-38162475D01*
X49486589Y-38162475D02*
X49581827Y-38114856D01*
X49581827Y-38114856D02*
X49629446Y-38019617D01*
X49629446Y-38019617D02*
X49629446Y-37638665D01*
X49629446Y-37638665D02*
X49581827Y-37543427D01*
X49581827Y-37543427D02*
X49486589Y-37495808D01*
X49486589Y-37495808D02*
X49296113Y-37495808D01*
X49296113Y-37495808D02*
X49200875Y-37543427D01*
X49200875Y-37543427D02*
X49153256Y-37638665D01*
X49153256Y-37638665D02*
X49153256Y-37733903D01*
X49153256Y-37733903D02*
X49629446Y-37829141D01*
X48724684Y-38162475D02*
X48724684Y-37495808D01*
X48724684Y-37686284D02*
X48677065Y-37591046D01*
X48677065Y-37591046D02*
X48629446Y-37543427D01*
X48629446Y-37543427D02*
X48534208Y-37495808D01*
X48534208Y-37495808D02*
X48438970Y-37495808D01*
X47724684Y-38114856D02*
X47819922Y-38162475D01*
X47819922Y-38162475D02*
X48010398Y-38162475D01*
X48010398Y-38162475D02*
X48105636Y-38114856D01*
X48105636Y-38114856D02*
X48153255Y-38019617D01*
X48153255Y-38019617D02*
X48153255Y-37638665D01*
X48153255Y-37638665D02*
X48105636Y-37543427D01*
X48105636Y-37543427D02*
X48010398Y-37495808D01*
X48010398Y-37495808D02*
X47819922Y-37495808D01*
X47819922Y-37495808D02*
X47724684Y-37543427D01*
X47724684Y-37543427D02*
X47677065Y-37638665D01*
X47677065Y-37638665D02*
X47677065Y-37733903D01*
X47677065Y-37733903D02*
X48153255Y-37829141D01*
X47200874Y-37162475D02*
X47296112Y-37352951D01*
X46819922Y-38114856D02*
X46724684Y-38162475D01*
X46724684Y-38162475D02*
X46534208Y-38162475D01*
X46534208Y-38162475D02*
X46438970Y-38114856D01*
X46438970Y-38114856D02*
X46391351Y-38019617D01*
X46391351Y-38019617D02*
X46391351Y-37971998D01*
X46391351Y-37971998D02*
X46438970Y-37876760D01*
X46438970Y-37876760D02*
X46534208Y-37829141D01*
X46534208Y-37829141D02*
X46677065Y-37829141D01*
X46677065Y-37829141D02*
X46772303Y-37781522D01*
X46772303Y-37781522D02*
X46819922Y-37686284D01*
X46819922Y-37686284D02*
X46819922Y-37638665D01*
X46819922Y-37638665D02*
X46772303Y-37543427D01*
X46772303Y-37543427D02*
X46677065Y-37495808D01*
X46677065Y-37495808D02*
X46534208Y-37495808D01*
X46534208Y-37495808D02*
X46438970Y-37543427D01*
X75296115Y-39105752D02*
X75296115Y-39772419D01*
X75296115Y-39200990D02*
X75248496Y-39153371D01*
X75248496Y-39153371D02*
X75153258Y-39105752D01*
X75153258Y-39105752D02*
X75010401Y-39105752D01*
X75010401Y-39105752D02*
X74915163Y-39153371D01*
X74915163Y-39153371D02*
X74867544Y-39248609D01*
X74867544Y-39248609D02*
X74867544Y-39772419D01*
X74248496Y-39772419D02*
X74343734Y-39724800D01*
X74343734Y-39724800D02*
X74391353Y-39677180D01*
X74391353Y-39677180D02*
X74438972Y-39581942D01*
X74438972Y-39581942D02*
X74438972Y-39296228D01*
X74438972Y-39296228D02*
X74391353Y-39200990D01*
X74391353Y-39200990D02*
X74343734Y-39153371D01*
X74343734Y-39153371D02*
X74248496Y-39105752D01*
X74248496Y-39105752D02*
X74105639Y-39105752D01*
X74105639Y-39105752D02*
X74010401Y-39153371D01*
X74010401Y-39153371D02*
X73962782Y-39200990D01*
X73962782Y-39200990D02*
X73915163Y-39296228D01*
X73915163Y-39296228D02*
X73915163Y-39581942D01*
X73915163Y-39581942D02*
X73962782Y-39677180D01*
X73962782Y-39677180D02*
X74010401Y-39724800D01*
X74010401Y-39724800D02*
X74105639Y-39772419D01*
X74105639Y-39772419D02*
X74248496Y-39772419D01*
X73629448Y-39105752D02*
X73248496Y-39105752D01*
X73486591Y-38772419D02*
X73486591Y-39629561D01*
X73486591Y-39629561D02*
X73438972Y-39724800D01*
X73438972Y-39724800D02*
X73343734Y-39772419D01*
X73343734Y-39772419D02*
X73248496Y-39772419D01*
X72915162Y-39772419D02*
X72915162Y-38772419D01*
X72486591Y-39772419D02*
X72486591Y-39248609D01*
X72486591Y-39248609D02*
X72534210Y-39153371D01*
X72534210Y-39153371D02*
X72629448Y-39105752D01*
X72629448Y-39105752D02*
X72772305Y-39105752D01*
X72772305Y-39105752D02*
X72867543Y-39153371D01*
X72867543Y-39153371D02*
X72915162Y-39200990D01*
X72010400Y-39772419D02*
X72010400Y-39105752D01*
X72010400Y-38772419D02*
X72058019Y-38820038D01*
X72058019Y-38820038D02*
X72010400Y-38867657D01*
X72010400Y-38867657D02*
X71962781Y-38820038D01*
X71962781Y-38820038D02*
X72010400Y-38772419D01*
X72010400Y-38772419D02*
X72010400Y-38867657D01*
X71534210Y-39105752D02*
X71534210Y-39772419D01*
X71534210Y-39200990D02*
X71486591Y-39153371D01*
X71486591Y-39153371D02*
X71391353Y-39105752D01*
X71391353Y-39105752D02*
X71248496Y-39105752D01*
X71248496Y-39105752D02*
X71153258Y-39153371D01*
X71153258Y-39153371D02*
X71105639Y-39248609D01*
X71105639Y-39248609D02*
X71105639Y-39772419D01*
X70200877Y-39105752D02*
X70200877Y-39915276D01*
X70200877Y-39915276D02*
X70248496Y-40010514D01*
X70248496Y-40010514D02*
X70296115Y-40058133D01*
X70296115Y-40058133D02*
X70391353Y-40105752D01*
X70391353Y-40105752D02*
X70534210Y-40105752D01*
X70534210Y-40105752D02*
X70629448Y-40058133D01*
X70200877Y-39724800D02*
X70296115Y-39772419D01*
X70296115Y-39772419D02*
X70486591Y-39772419D01*
X70486591Y-39772419D02*
X70581829Y-39724800D01*
X70581829Y-39724800D02*
X70629448Y-39677180D01*
X70629448Y-39677180D02*
X70677067Y-39581942D01*
X70677067Y-39581942D02*
X70677067Y-39296228D01*
X70677067Y-39296228D02*
X70629448Y-39200990D01*
X70629448Y-39200990D02*
X70581829Y-39153371D01*
X70581829Y-39153371D02*
X70486591Y-39105752D01*
X70486591Y-39105752D02*
X70296115Y-39105752D01*
X70296115Y-39105752D02*
X70200877Y-39153371D01*
X69105638Y-39105752D02*
X68724686Y-39105752D01*
X68962781Y-38772419D02*
X68962781Y-39629561D01*
X68962781Y-39629561D02*
X68915162Y-39724800D01*
X68915162Y-39724800D02*
X68819924Y-39772419D01*
X68819924Y-39772419D02*
X68724686Y-39772419D01*
X68391352Y-39772419D02*
X68391352Y-38772419D01*
X67962781Y-39772419D02*
X67962781Y-39248609D01*
X67962781Y-39248609D02*
X68010400Y-39153371D01*
X68010400Y-39153371D02*
X68105638Y-39105752D01*
X68105638Y-39105752D02*
X68248495Y-39105752D01*
X68248495Y-39105752D02*
X68343733Y-39153371D01*
X68343733Y-39153371D02*
X68391352Y-39200990D01*
X67486590Y-39772419D02*
X67486590Y-39105752D01*
X67486590Y-38772419D02*
X67534209Y-38820038D01*
X67534209Y-38820038D02*
X67486590Y-38867657D01*
X67486590Y-38867657D02*
X67438971Y-38820038D01*
X67438971Y-38820038D02*
X67486590Y-38772419D01*
X67486590Y-38772419D02*
X67486590Y-38867657D01*
X67058019Y-39724800D02*
X66962781Y-39772419D01*
X66962781Y-39772419D02*
X66772305Y-39772419D01*
X66772305Y-39772419D02*
X66677067Y-39724800D01*
X66677067Y-39724800D02*
X66629448Y-39629561D01*
X66629448Y-39629561D02*
X66629448Y-39581942D01*
X66629448Y-39581942D02*
X66677067Y-39486704D01*
X66677067Y-39486704D02*
X66772305Y-39439085D01*
X66772305Y-39439085D02*
X66915162Y-39439085D01*
X66915162Y-39439085D02*
X67010400Y-39391466D01*
X67010400Y-39391466D02*
X67058019Y-39296228D01*
X67058019Y-39296228D02*
X67058019Y-39248609D01*
X67058019Y-39248609D02*
X67010400Y-39153371D01*
X67010400Y-39153371D02*
X66915162Y-39105752D01*
X66915162Y-39105752D02*
X66772305Y-39105752D01*
X66772305Y-39105752D02*
X66677067Y-39153371D01*
X65486590Y-39724800D02*
X65391352Y-39772419D01*
X65391352Y-39772419D02*
X65200876Y-39772419D01*
X65200876Y-39772419D02*
X65105638Y-39724800D01*
X65105638Y-39724800D02*
X65058019Y-39629561D01*
X65058019Y-39629561D02*
X65058019Y-39581942D01*
X65058019Y-39581942D02*
X65105638Y-39486704D01*
X65105638Y-39486704D02*
X65200876Y-39439085D01*
X65200876Y-39439085D02*
X65343733Y-39439085D01*
X65343733Y-39439085D02*
X65438971Y-39391466D01*
X65438971Y-39391466D02*
X65486590Y-39296228D01*
X65486590Y-39296228D02*
X65486590Y-39248609D01*
X65486590Y-39248609D02*
X65438971Y-39153371D01*
X65438971Y-39153371D02*
X65343733Y-39105752D01*
X65343733Y-39105752D02*
X65200876Y-39105752D01*
X65200876Y-39105752D02*
X65105638Y-39153371D01*
X64629447Y-39772419D02*
X64629447Y-39105752D01*
X64629447Y-38772419D02*
X64677066Y-38820038D01*
X64677066Y-38820038D02*
X64629447Y-38867657D01*
X64629447Y-38867657D02*
X64581828Y-38820038D01*
X64581828Y-38820038D02*
X64629447Y-38772419D01*
X64629447Y-38772419D02*
X64629447Y-38867657D01*
X63724686Y-39772419D02*
X63724686Y-38772419D01*
X63724686Y-39724800D02*
X63819924Y-39772419D01*
X63819924Y-39772419D02*
X64010400Y-39772419D01*
X64010400Y-39772419D02*
X64105638Y-39724800D01*
X64105638Y-39724800D02*
X64153257Y-39677180D01*
X64153257Y-39677180D02*
X64200876Y-39581942D01*
X64200876Y-39581942D02*
X64200876Y-39296228D01*
X64200876Y-39296228D02*
X64153257Y-39200990D01*
X64153257Y-39200990D02*
X64105638Y-39153371D01*
X64105638Y-39153371D02*
X64010400Y-39105752D01*
X64010400Y-39105752D02*
X63819924Y-39105752D01*
X63819924Y-39105752D02*
X63724686Y-39153371D01*
X62867543Y-39724800D02*
X62962781Y-39772419D01*
X62962781Y-39772419D02*
X63153257Y-39772419D01*
X63153257Y-39772419D02*
X63248495Y-39724800D01*
X63248495Y-39724800D02*
X63296114Y-39629561D01*
X63296114Y-39629561D02*
X63296114Y-39248609D01*
X63296114Y-39248609D02*
X63248495Y-39153371D01*
X63248495Y-39153371D02*
X63153257Y-39105752D01*
X63153257Y-39105752D02*
X62962781Y-39105752D01*
X62962781Y-39105752D02*
X62867543Y-39153371D01*
X62867543Y-39153371D02*
X62819924Y-39248609D01*
X62819924Y-39248609D02*
X62819924Y-39343847D01*
X62819924Y-39343847D02*
X63296114Y-39439085D01*
X61486590Y-39772419D02*
X61581828Y-39724800D01*
X61581828Y-39724800D02*
X61629447Y-39677180D01*
X61629447Y-39677180D02*
X61677066Y-39581942D01*
X61677066Y-39581942D02*
X61677066Y-39296228D01*
X61677066Y-39296228D02*
X61629447Y-39200990D01*
X61629447Y-39200990D02*
X61581828Y-39153371D01*
X61581828Y-39153371D02*
X61486590Y-39105752D01*
X61486590Y-39105752D02*
X61343733Y-39105752D01*
X61343733Y-39105752D02*
X61248495Y-39153371D01*
X61248495Y-39153371D02*
X61200876Y-39200990D01*
X61200876Y-39200990D02*
X61153257Y-39296228D01*
X61153257Y-39296228D02*
X61153257Y-39581942D01*
X61153257Y-39581942D02*
X61200876Y-39677180D01*
X61200876Y-39677180D02*
X61248495Y-39724800D01*
X61248495Y-39724800D02*
X61343733Y-39772419D01*
X61343733Y-39772419D02*
X61486590Y-39772419D01*
X60867542Y-39105752D02*
X60486590Y-39105752D01*
X60724685Y-39772419D02*
X60724685Y-38915276D01*
X60724685Y-38915276D02*
X60677066Y-38820038D01*
X60677066Y-38820038D02*
X60581828Y-38772419D01*
X60581828Y-38772419D02*
X60486590Y-38772419D01*
X59534208Y-39105752D02*
X59153256Y-39105752D01*
X59391351Y-38772419D02*
X59391351Y-39629561D01*
X59391351Y-39629561D02*
X59343732Y-39724800D01*
X59343732Y-39724800D02*
X59248494Y-39772419D01*
X59248494Y-39772419D02*
X59153256Y-39772419D01*
X58819922Y-39772419D02*
X58819922Y-38772419D01*
X58391351Y-39772419D02*
X58391351Y-39248609D01*
X58391351Y-39248609D02*
X58438970Y-39153371D01*
X58438970Y-39153371D02*
X58534208Y-39105752D01*
X58534208Y-39105752D02*
X58677065Y-39105752D01*
X58677065Y-39105752D02*
X58772303Y-39153371D01*
X58772303Y-39153371D02*
X58819922Y-39200990D01*
X57534208Y-39724800D02*
X57629446Y-39772419D01*
X57629446Y-39772419D02*
X57819922Y-39772419D01*
X57819922Y-39772419D02*
X57915160Y-39724800D01*
X57915160Y-39724800D02*
X57962779Y-39629561D01*
X57962779Y-39629561D02*
X57962779Y-39248609D01*
X57962779Y-39248609D02*
X57915160Y-39153371D01*
X57915160Y-39153371D02*
X57819922Y-39105752D01*
X57819922Y-39105752D02*
X57629446Y-39105752D01*
X57629446Y-39105752D02*
X57534208Y-39153371D01*
X57534208Y-39153371D02*
X57486589Y-39248609D01*
X57486589Y-39248609D02*
X57486589Y-39343847D01*
X57486589Y-39343847D02*
X57962779Y-39439085D01*
X56296112Y-39772419D02*
X56296112Y-38772419D01*
X56296112Y-39153371D02*
X56200874Y-39105752D01*
X56200874Y-39105752D02*
X56010398Y-39105752D01*
X56010398Y-39105752D02*
X55915160Y-39153371D01*
X55915160Y-39153371D02*
X55867541Y-39200990D01*
X55867541Y-39200990D02*
X55819922Y-39296228D01*
X55819922Y-39296228D02*
X55819922Y-39581942D01*
X55819922Y-39581942D02*
X55867541Y-39677180D01*
X55867541Y-39677180D02*
X55915160Y-39724800D01*
X55915160Y-39724800D02*
X56010398Y-39772419D01*
X56010398Y-39772419D02*
X56200874Y-39772419D01*
X56200874Y-39772419D02*
X56296112Y-39724800D01*
X55248493Y-39772419D02*
X55343731Y-39724800D01*
X55343731Y-39724800D02*
X55391350Y-39677180D01*
X55391350Y-39677180D02*
X55438969Y-39581942D01*
X55438969Y-39581942D02*
X55438969Y-39296228D01*
X55438969Y-39296228D02*
X55391350Y-39200990D01*
X55391350Y-39200990D02*
X55343731Y-39153371D01*
X55343731Y-39153371D02*
X55248493Y-39105752D01*
X55248493Y-39105752D02*
X55105636Y-39105752D01*
X55105636Y-39105752D02*
X55010398Y-39153371D01*
X55010398Y-39153371D02*
X54962779Y-39200990D01*
X54962779Y-39200990D02*
X54915160Y-39296228D01*
X54915160Y-39296228D02*
X54915160Y-39581942D01*
X54915160Y-39581942D02*
X54962779Y-39677180D01*
X54962779Y-39677180D02*
X55010398Y-39724800D01*
X55010398Y-39724800D02*
X55105636Y-39772419D01*
X55105636Y-39772419D02*
X55248493Y-39772419D01*
X54058017Y-39772419D02*
X54058017Y-39248609D01*
X54058017Y-39248609D02*
X54105636Y-39153371D01*
X54105636Y-39153371D02*
X54200874Y-39105752D01*
X54200874Y-39105752D02*
X54391350Y-39105752D01*
X54391350Y-39105752D02*
X54486588Y-39153371D01*
X54058017Y-39724800D02*
X54153255Y-39772419D01*
X54153255Y-39772419D02*
X54391350Y-39772419D01*
X54391350Y-39772419D02*
X54486588Y-39724800D01*
X54486588Y-39724800D02*
X54534207Y-39629561D01*
X54534207Y-39629561D02*
X54534207Y-39534323D01*
X54534207Y-39534323D02*
X54486588Y-39439085D01*
X54486588Y-39439085D02*
X54391350Y-39391466D01*
X54391350Y-39391466D02*
X54153255Y-39391466D01*
X54153255Y-39391466D02*
X54058017Y-39343847D01*
X53581826Y-39772419D02*
X53581826Y-39105752D01*
X53581826Y-39296228D02*
X53534207Y-39200990D01*
X53534207Y-39200990D02*
X53486588Y-39153371D01*
X53486588Y-39153371D02*
X53391350Y-39105752D01*
X53391350Y-39105752D02*
X53296112Y-39105752D01*
X52534207Y-39772419D02*
X52534207Y-38772419D01*
X52534207Y-39724800D02*
X52629445Y-39772419D01*
X52629445Y-39772419D02*
X52819921Y-39772419D01*
X52819921Y-39772419D02*
X52915159Y-39724800D01*
X52915159Y-39724800D02*
X52962778Y-39677180D01*
X52962778Y-39677180D02*
X53010397Y-39581942D01*
X53010397Y-39581942D02*
X53010397Y-39296228D01*
X53010397Y-39296228D02*
X52962778Y-39200990D01*
X52962778Y-39200990D02*
X52915159Y-39153371D01*
X52915159Y-39153371D02*
X52819921Y-39105752D01*
X52819921Y-39105752D02*
X52629445Y-39105752D01*
X52629445Y-39105752D02*
X52534207Y-39153371D01*
X51915159Y-39677180D02*
X51867540Y-39724800D01*
X51867540Y-39724800D02*
X51915159Y-39772419D01*
X51915159Y-39772419D02*
X51962778Y-39724800D01*
X51962778Y-39724800D02*
X51915159Y-39677180D01*
X51915159Y-39677180D02*
X51915159Y-39772419D01*
X52105635Y-38820038D02*
X52010397Y-38772419D01*
X52010397Y-38772419D02*
X51772302Y-38772419D01*
X51772302Y-38772419D02*
X51677064Y-38820038D01*
X51677064Y-38820038D02*
X51629445Y-38915276D01*
X51629445Y-38915276D02*
X51629445Y-39010514D01*
X51629445Y-39010514D02*
X51677064Y-39105752D01*
X51677064Y-39105752D02*
X51724683Y-39153371D01*
X51724683Y-39153371D02*
X51819921Y-39200990D01*
X51819921Y-39200990D02*
X51867540Y-39248609D01*
X51867540Y-39248609D02*
X51915159Y-39343847D01*
X51915159Y-39343847D02*
X51915159Y-39391466D01*
X50581825Y-39105752D02*
X50200873Y-39105752D01*
X50438968Y-38772419D02*
X50438968Y-39629561D01*
X50438968Y-39629561D02*
X50391349Y-39724800D01*
X50391349Y-39724800D02*
X50296111Y-39772419D01*
X50296111Y-39772419D02*
X50200873Y-39772419D01*
X49867539Y-39772419D02*
X49867539Y-38772419D01*
X49438968Y-39772419D02*
X49438968Y-39248609D01*
X49438968Y-39248609D02*
X49486587Y-39153371D01*
X49486587Y-39153371D02*
X49581825Y-39105752D01*
X49581825Y-39105752D02*
X49724682Y-39105752D01*
X49724682Y-39105752D02*
X49819920Y-39153371D01*
X49819920Y-39153371D02*
X49867539Y-39200990D01*
X48534206Y-39772419D02*
X48534206Y-39248609D01*
X48534206Y-39248609D02*
X48581825Y-39153371D01*
X48581825Y-39153371D02*
X48677063Y-39105752D01*
X48677063Y-39105752D02*
X48867539Y-39105752D01*
X48867539Y-39105752D02*
X48962777Y-39153371D01*
X48534206Y-39724800D02*
X48629444Y-39772419D01*
X48629444Y-39772419D02*
X48867539Y-39772419D01*
X48867539Y-39772419D02*
X48962777Y-39724800D01*
X48962777Y-39724800D02*
X49010396Y-39629561D01*
X49010396Y-39629561D02*
X49010396Y-39534323D01*
X49010396Y-39534323D02*
X48962777Y-39439085D01*
X48962777Y-39439085D02*
X48867539Y-39391466D01*
X48867539Y-39391466D02*
X48629444Y-39391466D01*
X48629444Y-39391466D02*
X48534206Y-39343847D01*
X48200872Y-39105752D02*
X47819920Y-39105752D01*
X48058015Y-38772419D02*
X48058015Y-39629561D01*
X48058015Y-39629561D02*
X48010396Y-39724800D01*
X48010396Y-39724800D02*
X47915158Y-39772419D01*
X47915158Y-39772419D02*
X47819920Y-39772419D01*
X47438967Y-38772419D02*
X47534205Y-38962895D01*
X47058015Y-39724800D02*
X46962777Y-39772419D01*
X46962777Y-39772419D02*
X46772301Y-39772419D01*
X46772301Y-39772419D02*
X46677063Y-39724800D01*
X46677063Y-39724800D02*
X46629444Y-39629561D01*
X46629444Y-39629561D02*
X46629444Y-39581942D01*
X46629444Y-39581942D02*
X46677063Y-39486704D01*
X46677063Y-39486704D02*
X46772301Y-39439085D01*
X46772301Y-39439085D02*
X46915158Y-39439085D01*
X46915158Y-39439085D02*
X47010396Y-39391466D01*
X47010396Y-39391466D02*
X47058015Y-39296228D01*
X47058015Y-39296228D02*
X47058015Y-39248609D01*
X47058015Y-39248609D02*
X47010396Y-39153371D01*
X47010396Y-39153371D02*
X46915158Y-39105752D01*
X46915158Y-39105752D02*
X46772301Y-39105752D01*
X46772301Y-39105752D02*
X46677063Y-39153371D01*
X45486586Y-39724800D02*
X45343729Y-39772419D01*
X45343729Y-39772419D02*
X45105634Y-39772419D01*
X45105634Y-39772419D02*
X45010396Y-39724800D01*
X45010396Y-39724800D02*
X44962777Y-39677180D01*
X44962777Y-39677180D02*
X44915158Y-39581942D01*
X44915158Y-39581942D02*
X44915158Y-39486704D01*
X44915158Y-39486704D02*
X44962777Y-39391466D01*
X44962777Y-39391466D02*
X45010396Y-39343847D01*
X45010396Y-39343847D02*
X45105634Y-39296228D01*
X45105634Y-39296228D02*
X45296110Y-39248609D01*
X45296110Y-39248609D02*
X45391348Y-39200990D01*
X45391348Y-39200990D02*
X45438967Y-39153371D01*
X45438967Y-39153371D02*
X45486586Y-39058133D01*
X45486586Y-39058133D02*
X45486586Y-38962895D01*
X45486586Y-38962895D02*
X45438967Y-38867657D01*
X45438967Y-38867657D02*
X45391348Y-38820038D01*
X45391348Y-38820038D02*
X45296110Y-38772419D01*
X45296110Y-38772419D02*
X45058015Y-38772419D01*
X45058015Y-38772419D02*
X44915158Y-38820038D01*
X44486586Y-39772419D02*
X44486586Y-38772419D01*
X44486586Y-38772419D02*
X44153253Y-39486704D01*
X44153253Y-39486704D02*
X43819920Y-38772419D01*
X43819920Y-38772419D02*
X43819920Y-39772419D01*
X43343729Y-39772419D02*
X43343729Y-38772419D01*
X43343729Y-38772419D02*
X43105634Y-38772419D01*
X43105634Y-38772419D02*
X42962777Y-38820038D01*
X42962777Y-38820038D02*
X42867539Y-38915276D01*
X42867539Y-38915276D02*
X42819920Y-39010514D01*
X42819920Y-39010514D02*
X42772301Y-39200990D01*
X42772301Y-39200990D02*
X42772301Y-39343847D01*
X42772301Y-39343847D02*
X42819920Y-39534323D01*
X42819920Y-39534323D02*
X42867539Y-39629561D01*
X42867539Y-39629561D02*
X42962777Y-39724800D01*
X42962777Y-39724800D02*
X43105634Y-39772419D01*
X43105634Y-39772419D02*
X43343729Y-39772419D01*
X41724681Y-39105752D02*
X41343729Y-39105752D01*
X41581824Y-39772419D02*
X41581824Y-38915276D01*
X41581824Y-38915276D02*
X41534205Y-38820038D01*
X41534205Y-38820038D02*
X41438967Y-38772419D01*
X41438967Y-38772419D02*
X41343729Y-38772419D01*
X40867538Y-39772419D02*
X40962776Y-39724800D01*
X40962776Y-39724800D02*
X41010395Y-39677180D01*
X41010395Y-39677180D02*
X41058014Y-39581942D01*
X41058014Y-39581942D02*
X41058014Y-39296228D01*
X41058014Y-39296228D02*
X41010395Y-39200990D01*
X41010395Y-39200990D02*
X40962776Y-39153371D01*
X40962776Y-39153371D02*
X40867538Y-39105752D01*
X40867538Y-39105752D02*
X40724681Y-39105752D01*
X40724681Y-39105752D02*
X40629443Y-39153371D01*
X40629443Y-39153371D02*
X40581824Y-39200990D01*
X40581824Y-39200990D02*
X40534205Y-39296228D01*
X40534205Y-39296228D02*
X40534205Y-39581942D01*
X40534205Y-39581942D02*
X40581824Y-39677180D01*
X40581824Y-39677180D02*
X40629443Y-39724800D01*
X40629443Y-39724800D02*
X40724681Y-39772419D01*
X40724681Y-39772419D02*
X40867538Y-39772419D01*
X40105633Y-39772419D02*
X40105633Y-39105752D01*
X40105633Y-39296228D02*
X40058014Y-39200990D01*
X40058014Y-39200990D02*
X40010395Y-39153371D01*
X40010395Y-39153371D02*
X39915157Y-39105752D01*
X39915157Y-39105752D02*
X39819919Y-39105752D01*
X38819918Y-39105752D02*
X38581823Y-39772419D01*
X38343728Y-39105752D02*
X38581823Y-39772419D01*
X38581823Y-39772419D02*
X38677061Y-40010514D01*
X38677061Y-40010514D02*
X38724680Y-40058133D01*
X38724680Y-40058133D02*
X38819918Y-40105752D01*
X37534204Y-39772419D02*
X37534204Y-39248609D01*
X37534204Y-39248609D02*
X37581823Y-39153371D01*
X37581823Y-39153371D02*
X37677061Y-39105752D01*
X37677061Y-39105752D02*
X37867537Y-39105752D01*
X37867537Y-39105752D02*
X37962775Y-39153371D01*
X37534204Y-39724800D02*
X37629442Y-39772419D01*
X37629442Y-39772419D02*
X37867537Y-39772419D01*
X37867537Y-39772419D02*
X37962775Y-39724800D01*
X37962775Y-39724800D02*
X38010394Y-39629561D01*
X38010394Y-39629561D02*
X38010394Y-39534323D01*
X38010394Y-39534323D02*
X37962775Y-39439085D01*
X37962775Y-39439085D02*
X37867537Y-39391466D01*
X37867537Y-39391466D02*
X37629442Y-39391466D01*
X37629442Y-39391466D02*
X37534204Y-39343847D01*
X37058013Y-39677180D02*
X37010394Y-39724800D01*
X37010394Y-39724800D02*
X37058013Y-39772419D01*
X37058013Y-39772419D02*
X37105632Y-39724800D01*
X37105632Y-39724800D02*
X37058013Y-39677180D01*
X37058013Y-39677180D02*
X37058013Y-39772419D01*
X37058013Y-39391466D02*
X37105632Y-38820038D01*
X37105632Y-38820038D02*
X37058013Y-38772419D01*
X37058013Y-38772419D02*
X37010394Y-38820038D01*
X37010394Y-38820038D02*
X37058013Y-39391466D01*
X37058013Y-39391466D02*
X37058013Y-38772419D01*
X77891353Y-25975920D02*
X77700877Y-26642587D01*
X77700877Y-26642587D02*
X77510401Y-26166396D01*
X77510401Y-26166396D02*
X77319925Y-26642587D01*
X77319925Y-26642587D02*
X77129449Y-25975920D01*
X76319925Y-26642587D02*
X76319925Y-26118777D01*
X76319925Y-26118777D02*
X76367544Y-26023539D01*
X76367544Y-26023539D02*
X76462782Y-25975920D01*
X76462782Y-25975920D02*
X76653258Y-25975920D01*
X76653258Y-25975920D02*
X76748496Y-26023539D01*
X76319925Y-26594968D02*
X76415163Y-26642587D01*
X76415163Y-26642587D02*
X76653258Y-26642587D01*
X76653258Y-26642587D02*
X76748496Y-26594968D01*
X76748496Y-26594968D02*
X76796115Y-26499729D01*
X76796115Y-26499729D02*
X76796115Y-26404491D01*
X76796115Y-26404491D02*
X76748496Y-26309253D01*
X76748496Y-26309253D02*
X76653258Y-26261634D01*
X76653258Y-26261634D02*
X76415163Y-26261634D01*
X76415163Y-26261634D02*
X76319925Y-26214015D01*
X75843734Y-26642587D02*
X75843734Y-25975920D01*
X75843734Y-25642587D02*
X75891353Y-25690206D01*
X75891353Y-25690206D02*
X75843734Y-25737825D01*
X75843734Y-25737825D02*
X75796115Y-25690206D01*
X75796115Y-25690206D02*
X75843734Y-25642587D01*
X75843734Y-25642587D02*
X75843734Y-25737825D01*
X75510401Y-25975920D02*
X75129449Y-25975920D01*
X75367544Y-25642587D02*
X75367544Y-26499729D01*
X75367544Y-26499729D02*
X75319925Y-26594968D01*
X75319925Y-26594968D02*
X75224687Y-26642587D01*
X75224687Y-26642587D02*
X75129449Y-26642587D01*
X74796115Y-26547348D02*
X74748496Y-26594968D01*
X74748496Y-26594968D02*
X74796115Y-26642587D01*
X74796115Y-26642587D02*
X74843734Y-26594968D01*
X74843734Y-26594968D02*
X74796115Y-26547348D01*
X74796115Y-26547348D02*
X74796115Y-26642587D01*
X74796115Y-26261634D02*
X74843734Y-25690206D01*
X74843734Y-25690206D02*
X74796115Y-25642587D01*
X74796115Y-25642587D02*
X74748496Y-25690206D01*
X74748496Y-25690206D02*
X74796115Y-26261634D01*
X74796115Y-26261634D02*
X74796115Y-25642587D01*
X73653258Y-25975920D02*
X73415163Y-26642587D01*
X73177068Y-25975920D02*
X73415163Y-26642587D01*
X73415163Y-26642587D02*
X73510401Y-26880682D01*
X73510401Y-26880682D02*
X73558020Y-26928301D01*
X73558020Y-26928301D02*
X73653258Y-26975920D01*
X72653258Y-26642587D02*
X72748496Y-26594968D01*
X72748496Y-26594968D02*
X72796115Y-26547348D01*
X72796115Y-26547348D02*
X72843734Y-26452110D01*
X72843734Y-26452110D02*
X72843734Y-26166396D01*
X72843734Y-26166396D02*
X72796115Y-26071158D01*
X72796115Y-26071158D02*
X72748496Y-26023539D01*
X72748496Y-26023539D02*
X72653258Y-25975920D01*
X72653258Y-25975920D02*
X72510401Y-25975920D01*
X72510401Y-25975920D02*
X72415163Y-26023539D01*
X72415163Y-26023539D02*
X72367544Y-26071158D01*
X72367544Y-26071158D02*
X72319925Y-26166396D01*
X72319925Y-26166396D02*
X72319925Y-26452110D01*
X72319925Y-26452110D02*
X72367544Y-26547348D01*
X72367544Y-26547348D02*
X72415163Y-26594968D01*
X72415163Y-26594968D02*
X72510401Y-26642587D01*
X72510401Y-26642587D02*
X72653258Y-26642587D01*
X71462782Y-25975920D02*
X71462782Y-26642587D01*
X71891353Y-25975920D02*
X71891353Y-26499729D01*
X71891353Y-26499729D02*
X71843734Y-26594968D01*
X71843734Y-26594968D02*
X71748496Y-26642587D01*
X71748496Y-26642587D02*
X71605639Y-26642587D01*
X71605639Y-26642587D02*
X71510401Y-26594968D01*
X71510401Y-26594968D02*
X71462782Y-26547348D01*
X70272305Y-26594968D02*
X70177067Y-26642587D01*
X70177067Y-26642587D02*
X69986591Y-26642587D01*
X69986591Y-26642587D02*
X69891353Y-26594968D01*
X69891353Y-26594968D02*
X69843734Y-26499729D01*
X69843734Y-26499729D02*
X69843734Y-26452110D01*
X69843734Y-26452110D02*
X69891353Y-26356872D01*
X69891353Y-26356872D02*
X69986591Y-26309253D01*
X69986591Y-26309253D02*
X70129448Y-26309253D01*
X70129448Y-26309253D02*
X70224686Y-26261634D01*
X70224686Y-26261634D02*
X70272305Y-26166396D01*
X70272305Y-26166396D02*
X70272305Y-26118777D01*
X70272305Y-26118777D02*
X70224686Y-26023539D01*
X70224686Y-26023539D02*
X70129448Y-25975920D01*
X70129448Y-25975920D02*
X69986591Y-25975920D01*
X69986591Y-25975920D02*
X69891353Y-26023539D01*
X69415162Y-26642587D02*
X69415162Y-25642587D01*
X68986591Y-26642587D02*
X68986591Y-26118777D01*
X68986591Y-26118777D02*
X69034210Y-26023539D01*
X69034210Y-26023539D02*
X69129448Y-25975920D01*
X69129448Y-25975920D02*
X69272305Y-25975920D01*
X69272305Y-25975920D02*
X69367543Y-26023539D01*
X69367543Y-26023539D02*
X69415162Y-26071158D01*
X68367543Y-26642587D02*
X68462781Y-26594968D01*
X68462781Y-26594968D02*
X68510400Y-26547348D01*
X68510400Y-26547348D02*
X68558019Y-26452110D01*
X68558019Y-26452110D02*
X68558019Y-26166396D01*
X68558019Y-26166396D02*
X68510400Y-26071158D01*
X68510400Y-26071158D02*
X68462781Y-26023539D01*
X68462781Y-26023539D02*
X68367543Y-25975920D01*
X68367543Y-25975920D02*
X68224686Y-25975920D01*
X68224686Y-25975920D02*
X68129448Y-26023539D01*
X68129448Y-26023539D02*
X68081829Y-26071158D01*
X68081829Y-26071158D02*
X68034210Y-26166396D01*
X68034210Y-26166396D02*
X68034210Y-26452110D01*
X68034210Y-26452110D02*
X68081829Y-26547348D01*
X68081829Y-26547348D02*
X68129448Y-26594968D01*
X68129448Y-26594968D02*
X68224686Y-26642587D01*
X68224686Y-26642587D02*
X68367543Y-26642587D01*
X67177067Y-25975920D02*
X67177067Y-26642587D01*
X67605638Y-25975920D02*
X67605638Y-26499729D01*
X67605638Y-26499729D02*
X67558019Y-26594968D01*
X67558019Y-26594968D02*
X67462781Y-26642587D01*
X67462781Y-26642587D02*
X67319924Y-26642587D01*
X67319924Y-26642587D02*
X67224686Y-26594968D01*
X67224686Y-26594968D02*
X67177067Y-26547348D01*
X66558019Y-26642587D02*
X66653257Y-26594968D01*
X66653257Y-26594968D02*
X66700876Y-26499729D01*
X66700876Y-26499729D02*
X66700876Y-25642587D01*
X65748495Y-26642587D02*
X65748495Y-25642587D01*
X65748495Y-26594968D02*
X65843733Y-26642587D01*
X65843733Y-26642587D02*
X66034209Y-26642587D01*
X66034209Y-26642587D02*
X66129447Y-26594968D01*
X66129447Y-26594968D02*
X66177066Y-26547348D01*
X66177066Y-26547348D02*
X66224685Y-26452110D01*
X66224685Y-26452110D02*
X66224685Y-26166396D01*
X66224685Y-26166396D02*
X66177066Y-26071158D01*
X66177066Y-26071158D02*
X66129447Y-26023539D01*
X66129447Y-26023539D02*
X66034209Y-25975920D01*
X66034209Y-25975920D02*
X65843733Y-25975920D01*
X65843733Y-25975920D02*
X65748495Y-26023539D01*
X65272304Y-25975920D02*
X65272304Y-26642587D01*
X65272304Y-26071158D02*
X65224685Y-26023539D01*
X65224685Y-26023539D02*
X65129447Y-25975920D01*
X65129447Y-25975920D02*
X64986590Y-25975920D01*
X64986590Y-25975920D02*
X64891352Y-26023539D01*
X64891352Y-26023539D02*
X64843733Y-26118777D01*
X64843733Y-26118777D02*
X64843733Y-26642587D01*
X64319923Y-25642587D02*
X64415161Y-25833063D01*
X64034209Y-25975920D02*
X63653257Y-25975920D01*
X63891352Y-25642587D02*
X63891352Y-26499729D01*
X63891352Y-26499729D02*
X63843733Y-26594968D01*
X63843733Y-26594968D02*
X63748495Y-26642587D01*
X63748495Y-26642587D02*
X63653257Y-26642587D01*
X62558018Y-26642587D02*
X62558018Y-25642587D01*
X62558018Y-26023539D02*
X62462780Y-25975920D01*
X62462780Y-25975920D02*
X62272304Y-25975920D01*
X62272304Y-25975920D02*
X62177066Y-26023539D01*
X62177066Y-26023539D02*
X62129447Y-26071158D01*
X62129447Y-26071158D02*
X62081828Y-26166396D01*
X62081828Y-26166396D02*
X62081828Y-26452110D01*
X62081828Y-26452110D02*
X62129447Y-26547348D01*
X62129447Y-26547348D02*
X62177066Y-26594968D01*
X62177066Y-26594968D02*
X62272304Y-26642587D01*
X62272304Y-26642587D02*
X62462780Y-26642587D01*
X62462780Y-26642587D02*
X62558018Y-26594968D01*
X61272304Y-26594968D02*
X61367542Y-26642587D01*
X61367542Y-26642587D02*
X61558018Y-26642587D01*
X61558018Y-26642587D02*
X61653256Y-26594968D01*
X61653256Y-26594968D02*
X61700875Y-26499729D01*
X61700875Y-26499729D02*
X61700875Y-26118777D01*
X61700875Y-26118777D02*
X61653256Y-26023539D01*
X61653256Y-26023539D02*
X61558018Y-25975920D01*
X61558018Y-25975920D02*
X61367542Y-25975920D01*
X61367542Y-25975920D02*
X61272304Y-26023539D01*
X61272304Y-26023539D02*
X61224685Y-26118777D01*
X61224685Y-26118777D02*
X61224685Y-26214015D01*
X61224685Y-26214015D02*
X61700875Y-26309253D01*
X59605637Y-26642587D02*
X59605637Y-26118777D01*
X59605637Y-26118777D02*
X59653256Y-26023539D01*
X59653256Y-26023539D02*
X59748494Y-25975920D01*
X59748494Y-25975920D02*
X59938970Y-25975920D01*
X59938970Y-25975920D02*
X60034208Y-26023539D01*
X59605637Y-26594968D02*
X59700875Y-26642587D01*
X59700875Y-26642587D02*
X59938970Y-26642587D01*
X59938970Y-26642587D02*
X60034208Y-26594968D01*
X60034208Y-26594968D02*
X60081827Y-26499729D01*
X60081827Y-26499729D02*
X60081827Y-26404491D01*
X60081827Y-26404491D02*
X60034208Y-26309253D01*
X60034208Y-26309253D02*
X59938970Y-26261634D01*
X59938970Y-26261634D02*
X59700875Y-26261634D01*
X59700875Y-26261634D02*
X59605637Y-26214015D01*
X59129446Y-26642587D02*
X59129446Y-25642587D01*
X59129446Y-26023539D02*
X59034208Y-25975920D01*
X59034208Y-25975920D02*
X58843732Y-25975920D01*
X58843732Y-25975920D02*
X58748494Y-26023539D01*
X58748494Y-26023539D02*
X58700875Y-26071158D01*
X58700875Y-26071158D02*
X58653256Y-26166396D01*
X58653256Y-26166396D02*
X58653256Y-26452110D01*
X58653256Y-26452110D02*
X58700875Y-26547348D01*
X58700875Y-26547348D02*
X58748494Y-26594968D01*
X58748494Y-26594968D02*
X58843732Y-26642587D01*
X58843732Y-26642587D02*
X59034208Y-26642587D01*
X59034208Y-26642587D02*
X59129446Y-26594968D01*
X58081827Y-26642587D02*
X58177065Y-26594968D01*
X58177065Y-26594968D02*
X58224684Y-26499729D01*
X58224684Y-26499729D02*
X58224684Y-25642587D01*
X57319922Y-26594968D02*
X57415160Y-26642587D01*
X57415160Y-26642587D02*
X57605636Y-26642587D01*
X57605636Y-26642587D02*
X57700874Y-26594968D01*
X57700874Y-26594968D02*
X57748493Y-26499729D01*
X57748493Y-26499729D02*
X57748493Y-26118777D01*
X57748493Y-26118777D02*
X57700874Y-26023539D01*
X57700874Y-26023539D02*
X57605636Y-25975920D01*
X57605636Y-25975920D02*
X57415160Y-25975920D01*
X57415160Y-25975920D02*
X57319922Y-26023539D01*
X57319922Y-26023539D02*
X57272303Y-26118777D01*
X57272303Y-26118777D02*
X57272303Y-26214015D01*
X57272303Y-26214015D02*
X57748493Y-26309253D01*
X56224683Y-25975920D02*
X55843731Y-25975920D01*
X56081826Y-25642587D02*
X56081826Y-26499729D01*
X56081826Y-26499729D02*
X56034207Y-26594968D01*
X56034207Y-26594968D02*
X55938969Y-26642587D01*
X55938969Y-26642587D02*
X55843731Y-26642587D01*
X55367540Y-26642587D02*
X55462778Y-26594968D01*
X55462778Y-26594968D02*
X55510397Y-26547348D01*
X55510397Y-26547348D02*
X55558016Y-26452110D01*
X55558016Y-26452110D02*
X55558016Y-26166396D01*
X55558016Y-26166396D02*
X55510397Y-26071158D01*
X55510397Y-26071158D02*
X55462778Y-26023539D01*
X55462778Y-26023539D02*
X55367540Y-25975920D01*
X55367540Y-25975920D02*
X55224683Y-25975920D01*
X55224683Y-25975920D02*
X55129445Y-26023539D01*
X55129445Y-26023539D02*
X55081826Y-26071158D01*
X55081826Y-26071158D02*
X55034207Y-26166396D01*
X55034207Y-26166396D02*
X55034207Y-26452110D01*
X55034207Y-26452110D02*
X55081826Y-26547348D01*
X55081826Y-26547348D02*
X55129445Y-26594968D01*
X55129445Y-26594968D02*
X55224683Y-26642587D01*
X55224683Y-26642587D02*
X55367540Y-26642587D01*
X53891349Y-26594968D02*
X53796111Y-26642587D01*
X53796111Y-26642587D02*
X53605635Y-26642587D01*
X53605635Y-26642587D02*
X53510397Y-26594968D01*
X53510397Y-26594968D02*
X53462778Y-26499729D01*
X53462778Y-26499729D02*
X53462778Y-26452110D01*
X53462778Y-26452110D02*
X53510397Y-26356872D01*
X53510397Y-26356872D02*
X53605635Y-26309253D01*
X53605635Y-26309253D02*
X53748492Y-26309253D01*
X53748492Y-26309253D02*
X53843730Y-26261634D01*
X53843730Y-26261634D02*
X53891349Y-26166396D01*
X53891349Y-26166396D02*
X53891349Y-26118777D01*
X53891349Y-26118777D02*
X53843730Y-26023539D01*
X53843730Y-26023539D02*
X53748492Y-25975920D01*
X53748492Y-25975920D02*
X53605635Y-25975920D01*
X53605635Y-25975920D02*
X53510397Y-26023539D01*
X52653254Y-26594968D02*
X52748492Y-26642587D01*
X52748492Y-26642587D02*
X52938968Y-26642587D01*
X52938968Y-26642587D02*
X53034206Y-26594968D01*
X53034206Y-26594968D02*
X53081825Y-26499729D01*
X53081825Y-26499729D02*
X53081825Y-26118777D01*
X53081825Y-26118777D02*
X53034206Y-26023539D01*
X53034206Y-26023539D02*
X52938968Y-25975920D01*
X52938968Y-25975920D02*
X52748492Y-25975920D01*
X52748492Y-25975920D02*
X52653254Y-26023539D01*
X52653254Y-26023539D02*
X52605635Y-26118777D01*
X52605635Y-26118777D02*
X52605635Y-26214015D01*
X52605635Y-26214015D02*
X53081825Y-26309253D01*
X51796111Y-26594968D02*
X51891349Y-26642587D01*
X51891349Y-26642587D02*
X52081825Y-26642587D01*
X52081825Y-26642587D02*
X52177063Y-26594968D01*
X52177063Y-26594968D02*
X52224682Y-26499729D01*
X52224682Y-26499729D02*
X52224682Y-26118777D01*
X52224682Y-26118777D02*
X52177063Y-26023539D01*
X52177063Y-26023539D02*
X52081825Y-25975920D01*
X52081825Y-25975920D02*
X51891349Y-25975920D01*
X51891349Y-25975920D02*
X51796111Y-26023539D01*
X51796111Y-26023539D02*
X51748492Y-26118777D01*
X51748492Y-26118777D02*
X51748492Y-26214015D01*
X51748492Y-26214015D02*
X52224682Y-26309253D01*
X50700872Y-25975920D02*
X50319920Y-25975920D01*
X50558015Y-25642587D02*
X50558015Y-26499729D01*
X50558015Y-26499729D02*
X50510396Y-26594968D01*
X50510396Y-26594968D02*
X50415158Y-26642587D01*
X50415158Y-26642587D02*
X50319920Y-26642587D01*
X49986586Y-26642587D02*
X49986586Y-25642587D01*
X49558015Y-26642587D02*
X49558015Y-26118777D01*
X49558015Y-26118777D02*
X49605634Y-26023539D01*
X49605634Y-26023539D02*
X49700872Y-25975920D01*
X49700872Y-25975920D02*
X49843729Y-25975920D01*
X49843729Y-25975920D02*
X49938967Y-26023539D01*
X49938967Y-26023539D02*
X49986586Y-26071158D01*
X49081824Y-26642587D02*
X49081824Y-25975920D01*
X49081824Y-25642587D02*
X49129443Y-25690206D01*
X49129443Y-25690206D02*
X49081824Y-25737825D01*
X49081824Y-25737825D02*
X49034205Y-25690206D01*
X49034205Y-25690206D02*
X49081824Y-25642587D01*
X49081824Y-25642587D02*
X49081824Y-25737825D01*
X48653253Y-26594968D02*
X48558015Y-26642587D01*
X48558015Y-26642587D02*
X48367539Y-26642587D01*
X48367539Y-26642587D02*
X48272301Y-26594968D01*
X48272301Y-26594968D02*
X48224682Y-26499729D01*
X48224682Y-26499729D02*
X48224682Y-26452110D01*
X48224682Y-26452110D02*
X48272301Y-26356872D01*
X48272301Y-26356872D02*
X48367539Y-26309253D01*
X48367539Y-26309253D02*
X48510396Y-26309253D01*
X48510396Y-26309253D02*
X48605634Y-26261634D01*
X48605634Y-26261634D02*
X48653253Y-26166396D01*
X48653253Y-26166396D02*
X48653253Y-26118777D01*
X48653253Y-26118777D02*
X48605634Y-26023539D01*
X48605634Y-26023539D02*
X48510396Y-25975920D01*
X48510396Y-25975920D02*
X48367539Y-25975920D01*
X48367539Y-25975920D02*
X48272301Y-26023539D01*
X47796110Y-26547348D02*
X47748491Y-26594968D01*
X47748491Y-26594968D02*
X47796110Y-26642587D01*
X47796110Y-26642587D02*
X47843729Y-26594968D01*
X47843729Y-26594968D02*
X47796110Y-26547348D01*
X47796110Y-26547348D02*
X47796110Y-26642587D01*
X47796110Y-26261634D02*
X47843729Y-25690206D01*
X47843729Y-25690206D02*
X47796110Y-25642587D01*
X47796110Y-25642587D02*
X47748491Y-25690206D01*
X47748491Y-25690206D02*
X47796110Y-26261634D01*
X47796110Y-26261634D02*
X47796110Y-25642587D01*
X77796115Y-28252531D02*
X77796115Y-27252531D01*
X77367544Y-28252531D02*
X77367544Y-27728721D01*
X77367544Y-27728721D02*
X77415163Y-27633483D01*
X77415163Y-27633483D02*
X77510401Y-27585864D01*
X77510401Y-27585864D02*
X77653258Y-27585864D01*
X77653258Y-27585864D02*
X77748496Y-27633483D01*
X77748496Y-27633483D02*
X77796115Y-27681102D01*
X76891353Y-28252531D02*
X76891353Y-27585864D01*
X76891353Y-27681102D02*
X76843734Y-27633483D01*
X76843734Y-27633483D02*
X76748496Y-27585864D01*
X76748496Y-27585864D02*
X76605639Y-27585864D01*
X76605639Y-27585864D02*
X76510401Y-27633483D01*
X76510401Y-27633483D02*
X76462782Y-27728721D01*
X76462782Y-27728721D02*
X76462782Y-28252531D01*
X76462782Y-27728721D02*
X76415163Y-27633483D01*
X76415163Y-27633483D02*
X76319925Y-27585864D01*
X76319925Y-27585864D02*
X76177068Y-27585864D01*
X76177068Y-27585864D02*
X76081829Y-27633483D01*
X76081829Y-27633483D02*
X76034210Y-27728721D01*
X76034210Y-27728721D02*
X76034210Y-28252531D01*
X75558020Y-28252531D02*
X75558020Y-27585864D01*
X75558020Y-27681102D02*
X75510401Y-27633483D01*
X75510401Y-27633483D02*
X75415163Y-27585864D01*
X75415163Y-27585864D02*
X75272306Y-27585864D01*
X75272306Y-27585864D02*
X75177068Y-27633483D01*
X75177068Y-27633483D02*
X75129449Y-27728721D01*
X75129449Y-27728721D02*
X75129449Y-28252531D01*
X75129449Y-27728721D02*
X75081830Y-27633483D01*
X75081830Y-27633483D02*
X74986592Y-27585864D01*
X74986592Y-27585864D02*
X74843735Y-27585864D01*
X74843735Y-27585864D02*
X74748496Y-27633483D01*
X74748496Y-27633483D02*
X74700877Y-27728721D01*
X74700877Y-27728721D02*
X74700877Y-28252531D01*
X74224687Y-28157292D02*
X74177068Y-28204912D01*
X74177068Y-28204912D02*
X74224687Y-28252531D01*
X74224687Y-28252531D02*
X74272306Y-28204912D01*
X74272306Y-28204912D02*
X74224687Y-28157292D01*
X74224687Y-28157292D02*
X74224687Y-28252531D01*
X73748497Y-28157292D02*
X73700878Y-28204912D01*
X73700878Y-28204912D02*
X73748497Y-28252531D01*
X73748497Y-28252531D02*
X73796116Y-28204912D01*
X73796116Y-28204912D02*
X73748497Y-28157292D01*
X73748497Y-28157292D02*
X73748497Y-28252531D01*
X73272307Y-28157292D02*
X73224688Y-28204912D01*
X73224688Y-28204912D02*
X73272307Y-28252531D01*
X73272307Y-28252531D02*
X73319926Y-28204912D01*
X73319926Y-28204912D02*
X73272307Y-28157292D01*
X73272307Y-28157292D02*
X73272307Y-28252531D01*
X72081831Y-28204912D02*
X71986593Y-28252531D01*
X71986593Y-28252531D02*
X71796117Y-28252531D01*
X71796117Y-28252531D02*
X71700879Y-28204912D01*
X71700879Y-28204912D02*
X71653260Y-28109673D01*
X71653260Y-28109673D02*
X71653260Y-28062054D01*
X71653260Y-28062054D02*
X71700879Y-27966816D01*
X71700879Y-27966816D02*
X71796117Y-27919197D01*
X71796117Y-27919197D02*
X71938974Y-27919197D01*
X71938974Y-27919197D02*
X72034212Y-27871578D01*
X72034212Y-27871578D02*
X72081831Y-27776340D01*
X72081831Y-27776340D02*
X72081831Y-27728721D01*
X72081831Y-27728721D02*
X72034212Y-27633483D01*
X72034212Y-27633483D02*
X71938974Y-27585864D01*
X71938974Y-27585864D02*
X71796117Y-27585864D01*
X71796117Y-27585864D02*
X71700879Y-27633483D01*
X71081831Y-28252531D02*
X71177069Y-28204912D01*
X71177069Y-28204912D02*
X71224688Y-28157292D01*
X71224688Y-28157292D02*
X71272307Y-28062054D01*
X71272307Y-28062054D02*
X71272307Y-27776340D01*
X71272307Y-27776340D02*
X71224688Y-27681102D01*
X71224688Y-27681102D02*
X71177069Y-27633483D01*
X71177069Y-27633483D02*
X71081831Y-27585864D01*
X71081831Y-27585864D02*
X70938974Y-27585864D01*
X70938974Y-27585864D02*
X70843736Y-27633483D01*
X70843736Y-27633483D02*
X70796117Y-27681102D01*
X70796117Y-27681102D02*
X70748498Y-27776340D01*
X70748498Y-27776340D02*
X70748498Y-28062054D01*
X70748498Y-28062054D02*
X70796117Y-28157292D01*
X70796117Y-28157292D02*
X70843736Y-28204912D01*
X70843736Y-28204912D02*
X70938974Y-28252531D01*
X70938974Y-28252531D02*
X71081831Y-28252531D01*
X70319926Y-28252531D02*
X70319926Y-27585864D01*
X70319926Y-27681102D02*
X70272307Y-27633483D01*
X70272307Y-27633483D02*
X70177069Y-27585864D01*
X70177069Y-27585864D02*
X70034212Y-27585864D01*
X70034212Y-27585864D02*
X69938974Y-27633483D01*
X69938974Y-27633483D02*
X69891355Y-27728721D01*
X69891355Y-27728721D02*
X69891355Y-28252531D01*
X69891355Y-27728721D02*
X69843736Y-27633483D01*
X69843736Y-27633483D02*
X69748498Y-27585864D01*
X69748498Y-27585864D02*
X69605641Y-27585864D01*
X69605641Y-27585864D02*
X69510402Y-27633483D01*
X69510402Y-27633483D02*
X69462783Y-27728721D01*
X69462783Y-27728721D02*
X69462783Y-28252531D01*
X68605641Y-28204912D02*
X68700879Y-28252531D01*
X68700879Y-28252531D02*
X68891355Y-28252531D01*
X68891355Y-28252531D02*
X68986593Y-28204912D01*
X68986593Y-28204912D02*
X69034212Y-28109673D01*
X69034212Y-28109673D02*
X69034212Y-27728721D01*
X69034212Y-27728721D02*
X68986593Y-27633483D01*
X68986593Y-27633483D02*
X68891355Y-27585864D01*
X68891355Y-27585864D02*
X68700879Y-27585864D01*
X68700879Y-27585864D02*
X68605641Y-27633483D01*
X68605641Y-27633483D02*
X68558022Y-27728721D01*
X68558022Y-27728721D02*
X68558022Y-27823959D01*
X68558022Y-27823959D02*
X69034212Y-27919197D01*
X68272307Y-27585864D02*
X67891355Y-27585864D01*
X68129450Y-27252531D02*
X68129450Y-28109673D01*
X68129450Y-28109673D02*
X68081831Y-28204912D01*
X68081831Y-28204912D02*
X67986593Y-28252531D01*
X67986593Y-28252531D02*
X67891355Y-28252531D01*
X67558021Y-28252531D02*
X67558021Y-27252531D01*
X67129450Y-28252531D02*
X67129450Y-27728721D01*
X67129450Y-27728721D02*
X67177069Y-27633483D01*
X67177069Y-27633483D02*
X67272307Y-27585864D01*
X67272307Y-27585864D02*
X67415164Y-27585864D01*
X67415164Y-27585864D02*
X67510402Y-27633483D01*
X67510402Y-27633483D02*
X67558021Y-27681102D01*
X66653259Y-28252531D02*
X66653259Y-27585864D01*
X66653259Y-27252531D02*
X66700878Y-27300150D01*
X66700878Y-27300150D02*
X66653259Y-27347769D01*
X66653259Y-27347769D02*
X66605640Y-27300150D01*
X66605640Y-27300150D02*
X66653259Y-27252531D01*
X66653259Y-27252531D02*
X66653259Y-27347769D01*
X66177069Y-27585864D02*
X66177069Y-28252531D01*
X66177069Y-27681102D02*
X66129450Y-27633483D01*
X66129450Y-27633483D02*
X66034212Y-27585864D01*
X66034212Y-27585864D02*
X65891355Y-27585864D01*
X65891355Y-27585864D02*
X65796117Y-27633483D01*
X65796117Y-27633483D02*
X65748498Y-27728721D01*
X65748498Y-27728721D02*
X65748498Y-28252531D01*
X64843736Y-27585864D02*
X64843736Y-28395388D01*
X64843736Y-28395388D02*
X64891355Y-28490626D01*
X64891355Y-28490626D02*
X64938974Y-28538245D01*
X64938974Y-28538245D02*
X65034212Y-28585864D01*
X65034212Y-28585864D02*
X65177069Y-28585864D01*
X65177069Y-28585864D02*
X65272307Y-28538245D01*
X64843736Y-28204912D02*
X64938974Y-28252531D01*
X64938974Y-28252531D02*
X65129450Y-28252531D01*
X65129450Y-28252531D02*
X65224688Y-28204912D01*
X65224688Y-28204912D02*
X65272307Y-28157292D01*
X65272307Y-28157292D02*
X65319926Y-28062054D01*
X65319926Y-28062054D02*
X65319926Y-27776340D01*
X65319926Y-27776340D02*
X65272307Y-27681102D01*
X65272307Y-27681102D02*
X65224688Y-27633483D01*
X65224688Y-27633483D02*
X65129450Y-27585864D01*
X65129450Y-27585864D02*
X64938974Y-27585864D01*
X64938974Y-27585864D02*
X64843736Y-27633483D01*
X64319926Y-27252531D02*
X64415164Y-27443007D01*
X63938974Y-28204912D02*
X63843736Y-28252531D01*
X63843736Y-28252531D02*
X63653260Y-28252531D01*
X63653260Y-28252531D02*
X63558022Y-28204912D01*
X63558022Y-28204912D02*
X63510403Y-28109673D01*
X63510403Y-28109673D02*
X63510403Y-28062054D01*
X63510403Y-28062054D02*
X63558022Y-27966816D01*
X63558022Y-27966816D02*
X63653260Y-27919197D01*
X63653260Y-27919197D02*
X63796117Y-27919197D01*
X63796117Y-27919197D02*
X63891355Y-27871578D01*
X63891355Y-27871578D02*
X63938974Y-27776340D01*
X63938974Y-27776340D02*
X63938974Y-27728721D01*
X63938974Y-27728721D02*
X63891355Y-27633483D01*
X63891355Y-27633483D02*
X63796117Y-27585864D01*
X63796117Y-27585864D02*
X63653260Y-27585864D01*
X63653260Y-27585864D02*
X63558022Y-27633483D01*
X61891355Y-27585864D02*
X61891355Y-28395388D01*
X61891355Y-28395388D02*
X61938974Y-28490626D01*
X61938974Y-28490626D02*
X61986593Y-28538245D01*
X61986593Y-28538245D02*
X62081831Y-28585864D01*
X62081831Y-28585864D02*
X62224688Y-28585864D01*
X62224688Y-28585864D02*
X62319926Y-28538245D01*
X61891355Y-28204912D02*
X61986593Y-28252531D01*
X61986593Y-28252531D02*
X62177069Y-28252531D01*
X62177069Y-28252531D02*
X62272307Y-28204912D01*
X62272307Y-28204912D02*
X62319926Y-28157292D01*
X62319926Y-28157292D02*
X62367545Y-28062054D01*
X62367545Y-28062054D02*
X62367545Y-27776340D01*
X62367545Y-27776340D02*
X62319926Y-27681102D01*
X62319926Y-27681102D02*
X62272307Y-27633483D01*
X62272307Y-27633483D02*
X62177069Y-27585864D01*
X62177069Y-27585864D02*
X61986593Y-27585864D01*
X61986593Y-27585864D02*
X61891355Y-27633483D01*
X61272307Y-28252531D02*
X61367545Y-28204912D01*
X61367545Y-28204912D02*
X61415164Y-28157292D01*
X61415164Y-28157292D02*
X61462783Y-28062054D01*
X61462783Y-28062054D02*
X61462783Y-27776340D01*
X61462783Y-27776340D02*
X61415164Y-27681102D01*
X61415164Y-27681102D02*
X61367545Y-27633483D01*
X61367545Y-27633483D02*
X61272307Y-27585864D01*
X61272307Y-27585864D02*
X61129450Y-27585864D01*
X61129450Y-27585864D02*
X61034212Y-27633483D01*
X61034212Y-27633483D02*
X60986593Y-27681102D01*
X60986593Y-27681102D02*
X60938974Y-27776340D01*
X60938974Y-27776340D02*
X60938974Y-28062054D01*
X60938974Y-28062054D02*
X60986593Y-28157292D01*
X60986593Y-28157292D02*
X61034212Y-28204912D01*
X61034212Y-28204912D02*
X61129450Y-28252531D01*
X61129450Y-28252531D02*
X61272307Y-28252531D01*
X60510402Y-27585864D02*
X60510402Y-28252531D01*
X60510402Y-27681102D02*
X60462783Y-27633483D01*
X60462783Y-27633483D02*
X60367545Y-27585864D01*
X60367545Y-27585864D02*
X60224688Y-27585864D01*
X60224688Y-27585864D02*
X60129450Y-27633483D01*
X60129450Y-27633483D02*
X60081831Y-27728721D01*
X60081831Y-27728721D02*
X60081831Y-28252531D01*
X59224688Y-28204912D02*
X59319926Y-28252531D01*
X59319926Y-28252531D02*
X59510402Y-28252531D01*
X59510402Y-28252531D02*
X59605640Y-28204912D01*
X59605640Y-28204912D02*
X59653259Y-28109673D01*
X59653259Y-28109673D02*
X59653259Y-27728721D01*
X59653259Y-27728721D02*
X59605640Y-27633483D01*
X59605640Y-27633483D02*
X59510402Y-27585864D01*
X59510402Y-27585864D02*
X59319926Y-27585864D01*
X59319926Y-27585864D02*
X59224688Y-27633483D01*
X59224688Y-27633483D02*
X59177069Y-27728721D01*
X59177069Y-27728721D02*
X59177069Y-27823959D01*
X59177069Y-27823959D02*
X59653259Y-27919197D01*
X58081830Y-27585864D02*
X57891354Y-28252531D01*
X57891354Y-28252531D02*
X57700878Y-27776340D01*
X57700878Y-27776340D02*
X57510402Y-28252531D01*
X57510402Y-28252531D02*
X57319926Y-27585864D01*
X56938973Y-28252531D02*
X56938973Y-27585864D01*
X56938973Y-27776340D02*
X56891354Y-27681102D01*
X56891354Y-27681102D02*
X56843735Y-27633483D01*
X56843735Y-27633483D02*
X56748497Y-27585864D01*
X56748497Y-27585864D02*
X56653259Y-27585864D01*
X56177068Y-28252531D02*
X56272306Y-28204912D01*
X56272306Y-28204912D02*
X56319925Y-28157292D01*
X56319925Y-28157292D02*
X56367544Y-28062054D01*
X56367544Y-28062054D02*
X56367544Y-27776340D01*
X56367544Y-27776340D02*
X56319925Y-27681102D01*
X56319925Y-27681102D02*
X56272306Y-27633483D01*
X56272306Y-27633483D02*
X56177068Y-27585864D01*
X56177068Y-27585864D02*
X56034211Y-27585864D01*
X56034211Y-27585864D02*
X55938973Y-27633483D01*
X55938973Y-27633483D02*
X55891354Y-27681102D01*
X55891354Y-27681102D02*
X55843735Y-27776340D01*
X55843735Y-27776340D02*
X55843735Y-28062054D01*
X55843735Y-28062054D02*
X55891354Y-28157292D01*
X55891354Y-28157292D02*
X55938973Y-28204912D01*
X55938973Y-28204912D02*
X56034211Y-28252531D01*
X56034211Y-28252531D02*
X56177068Y-28252531D01*
X55415163Y-27585864D02*
X55415163Y-28252531D01*
X55415163Y-27681102D02*
X55367544Y-27633483D01*
X55367544Y-27633483D02*
X55272306Y-27585864D01*
X55272306Y-27585864D02*
X55129449Y-27585864D01*
X55129449Y-27585864D02*
X55034211Y-27633483D01*
X55034211Y-27633483D02*
X54986592Y-27728721D01*
X54986592Y-27728721D02*
X54986592Y-28252531D01*
X54081830Y-27585864D02*
X54081830Y-28395388D01*
X54081830Y-28395388D02*
X54129449Y-28490626D01*
X54129449Y-28490626D02*
X54177068Y-28538245D01*
X54177068Y-28538245D02*
X54272306Y-28585864D01*
X54272306Y-28585864D02*
X54415163Y-28585864D01*
X54415163Y-28585864D02*
X54510401Y-28538245D01*
X54081830Y-28204912D02*
X54177068Y-28252531D01*
X54177068Y-28252531D02*
X54367544Y-28252531D01*
X54367544Y-28252531D02*
X54462782Y-28204912D01*
X54462782Y-28204912D02*
X54510401Y-28157292D01*
X54510401Y-28157292D02*
X54558020Y-28062054D01*
X54558020Y-28062054D02*
X54558020Y-27776340D01*
X54558020Y-27776340D02*
X54510401Y-27681102D01*
X54510401Y-27681102D02*
X54462782Y-27633483D01*
X54462782Y-27633483D02*
X54367544Y-27585864D01*
X54367544Y-27585864D02*
X54177068Y-27585864D01*
X54177068Y-27585864D02*
X54081830Y-27633483D01*
X53605639Y-28157292D02*
X53558020Y-28204912D01*
X53558020Y-28204912D02*
X53605639Y-28252531D01*
X53605639Y-28252531D02*
X53653258Y-28204912D01*
X53653258Y-28204912D02*
X53605639Y-28157292D01*
X53605639Y-28157292D02*
X53605639Y-28252531D01*
X51986592Y-28204912D02*
X52081830Y-28252531D01*
X52081830Y-28252531D02*
X52272306Y-28252531D01*
X52272306Y-28252531D02*
X52367544Y-28204912D01*
X52367544Y-28204912D02*
X52415163Y-28109673D01*
X52415163Y-28109673D02*
X52415163Y-27728721D01*
X52415163Y-27728721D02*
X52367544Y-27633483D01*
X52367544Y-27633483D02*
X52272306Y-27585864D01*
X52272306Y-27585864D02*
X52081830Y-27585864D01*
X52081830Y-27585864D02*
X51986592Y-27633483D01*
X51986592Y-27633483D02*
X51938973Y-27728721D01*
X51938973Y-27728721D02*
X51938973Y-27823959D01*
X51938973Y-27823959D02*
X52415163Y-27919197D01*
X51510401Y-28252531D02*
X51510401Y-27585864D01*
X51510401Y-27252531D02*
X51558020Y-27300150D01*
X51558020Y-27300150D02*
X51510401Y-27347769D01*
X51510401Y-27347769D02*
X51462782Y-27300150D01*
X51462782Y-27300150D02*
X51510401Y-27252531D01*
X51510401Y-27252531D02*
X51510401Y-27347769D01*
X51177068Y-27585864D02*
X50796116Y-27585864D01*
X51034211Y-27252531D02*
X51034211Y-28109673D01*
X51034211Y-28109673D02*
X50986592Y-28204912D01*
X50986592Y-28204912D02*
X50891354Y-28252531D01*
X50891354Y-28252531D02*
X50796116Y-28252531D01*
X50462782Y-28252531D02*
X50462782Y-27252531D01*
X50034211Y-28252531D02*
X50034211Y-27728721D01*
X50034211Y-27728721D02*
X50081830Y-27633483D01*
X50081830Y-27633483D02*
X50177068Y-27585864D01*
X50177068Y-27585864D02*
X50319925Y-27585864D01*
X50319925Y-27585864D02*
X50415163Y-27633483D01*
X50415163Y-27633483D02*
X50462782Y-27681102D01*
X49177068Y-28204912D02*
X49272306Y-28252531D01*
X49272306Y-28252531D02*
X49462782Y-28252531D01*
X49462782Y-28252531D02*
X49558020Y-28204912D01*
X49558020Y-28204912D02*
X49605639Y-28109673D01*
X49605639Y-28109673D02*
X49605639Y-27728721D01*
X49605639Y-27728721D02*
X49558020Y-27633483D01*
X49558020Y-27633483D02*
X49462782Y-27585864D01*
X49462782Y-27585864D02*
X49272306Y-27585864D01*
X49272306Y-27585864D02*
X49177068Y-27633483D01*
X49177068Y-27633483D02*
X49129449Y-27728721D01*
X49129449Y-27728721D02*
X49129449Y-27823959D01*
X49129449Y-27823959D02*
X49605639Y-27919197D01*
X48700877Y-28252531D02*
X48700877Y-27585864D01*
X48700877Y-27776340D02*
X48653258Y-27681102D01*
X48653258Y-27681102D02*
X48605639Y-27633483D01*
X48605639Y-27633483D02*
X48510401Y-27585864D01*
X48510401Y-27585864D02*
X48415163Y-27585864D01*
X46938972Y-28204912D02*
X47034210Y-28252531D01*
X47034210Y-28252531D02*
X47224686Y-28252531D01*
X47224686Y-28252531D02*
X47319924Y-28204912D01*
X47319924Y-28204912D02*
X47367543Y-28109673D01*
X47367543Y-28109673D02*
X47367543Y-27728721D01*
X47367543Y-27728721D02*
X47319924Y-27633483D01*
X47319924Y-27633483D02*
X47224686Y-27585864D01*
X47224686Y-27585864D02*
X47034210Y-27585864D01*
X47034210Y-27585864D02*
X46938972Y-27633483D01*
X46938972Y-27633483D02*
X46891353Y-27728721D01*
X46891353Y-27728721D02*
X46891353Y-27823959D01*
X46891353Y-27823959D02*
X47367543Y-27919197D01*
X46558019Y-27585864D02*
X46319924Y-28252531D01*
X46319924Y-28252531D02*
X46081829Y-27585864D01*
X45319924Y-28204912D02*
X45415162Y-28252531D01*
X45415162Y-28252531D02*
X45605638Y-28252531D01*
X45605638Y-28252531D02*
X45700876Y-28204912D01*
X45700876Y-28204912D02*
X45748495Y-28109673D01*
X45748495Y-28109673D02*
X45748495Y-27728721D01*
X45748495Y-27728721D02*
X45700876Y-27633483D01*
X45700876Y-27633483D02*
X45605638Y-27585864D01*
X45605638Y-27585864D02*
X45415162Y-27585864D01*
X45415162Y-27585864D02*
X45319924Y-27633483D01*
X45319924Y-27633483D02*
X45272305Y-27728721D01*
X45272305Y-27728721D02*
X45272305Y-27823959D01*
X45272305Y-27823959D02*
X45748495Y-27919197D01*
X44843733Y-28252531D02*
X44843733Y-27585864D01*
X44843733Y-27776340D02*
X44796114Y-27681102D01*
X44796114Y-27681102D02*
X44748495Y-27633483D01*
X44748495Y-27633483D02*
X44653257Y-27585864D01*
X44653257Y-27585864D02*
X44558019Y-27585864D01*
X44319923Y-27585864D02*
X44081828Y-28252531D01*
X43843733Y-27585864D02*
X44081828Y-28252531D01*
X44081828Y-28252531D02*
X44177066Y-28490626D01*
X44177066Y-28490626D02*
X44224685Y-28538245D01*
X44224685Y-28538245D02*
X44319923Y-28585864D01*
X43605637Y-27585864D02*
X43224685Y-27585864D01*
X43462780Y-27252531D02*
X43462780Y-28109673D01*
X43462780Y-28109673D02*
X43415161Y-28204912D01*
X43415161Y-28204912D02*
X43319923Y-28252531D01*
X43319923Y-28252531D02*
X43224685Y-28252531D01*
X42891351Y-28252531D02*
X42891351Y-27252531D01*
X42462780Y-28252531D02*
X42462780Y-27728721D01*
X42462780Y-27728721D02*
X42510399Y-27633483D01*
X42510399Y-27633483D02*
X42605637Y-27585864D01*
X42605637Y-27585864D02*
X42748494Y-27585864D01*
X42748494Y-27585864D02*
X42843732Y-27633483D01*
X42843732Y-27633483D02*
X42891351Y-27681102D01*
X41986589Y-28252531D02*
X41986589Y-27585864D01*
X41986589Y-27252531D02*
X42034208Y-27300150D01*
X42034208Y-27300150D02*
X41986589Y-27347769D01*
X41986589Y-27347769D02*
X41938970Y-27300150D01*
X41938970Y-27300150D02*
X41986589Y-27252531D01*
X41986589Y-27252531D02*
X41986589Y-27347769D01*
X41510399Y-27585864D02*
X41510399Y-28252531D01*
X41510399Y-27681102D02*
X41462780Y-27633483D01*
X41462780Y-27633483D02*
X41367542Y-27585864D01*
X41367542Y-27585864D02*
X41224685Y-27585864D01*
X41224685Y-27585864D02*
X41129447Y-27633483D01*
X41129447Y-27633483D02*
X41081828Y-27728721D01*
X41081828Y-27728721D02*
X41081828Y-28252531D01*
X40177066Y-27585864D02*
X40177066Y-28395388D01*
X40177066Y-28395388D02*
X40224685Y-28490626D01*
X40224685Y-28490626D02*
X40272304Y-28538245D01*
X40272304Y-28538245D02*
X40367542Y-28585864D01*
X40367542Y-28585864D02*
X40510399Y-28585864D01*
X40510399Y-28585864D02*
X40605637Y-28538245D01*
X40177066Y-28204912D02*
X40272304Y-28252531D01*
X40272304Y-28252531D02*
X40462780Y-28252531D01*
X40462780Y-28252531D02*
X40558018Y-28204912D01*
X40558018Y-28204912D02*
X40605637Y-28157292D01*
X40605637Y-28157292D02*
X40653256Y-28062054D01*
X40653256Y-28062054D02*
X40653256Y-27776340D01*
X40653256Y-27776340D02*
X40605637Y-27681102D01*
X40605637Y-27681102D02*
X40558018Y-27633483D01*
X40558018Y-27633483D02*
X40462780Y-27585864D01*
X40462780Y-27585864D02*
X40272304Y-27585864D01*
X40272304Y-27585864D02*
X40177066Y-27633483D01*
X38938970Y-28252531D02*
X38938970Y-27585864D01*
X38938970Y-27252531D02*
X38986589Y-27300150D01*
X38986589Y-27300150D02*
X38938970Y-27347769D01*
X38938970Y-27347769D02*
X38891351Y-27300150D01*
X38891351Y-27300150D02*
X38938970Y-27252531D01*
X38938970Y-27252531D02*
X38938970Y-27347769D01*
X38462780Y-27585864D02*
X38462780Y-28252531D01*
X38462780Y-27681102D02*
X38415161Y-27633483D01*
X38415161Y-27633483D02*
X38319923Y-27585864D01*
X38319923Y-27585864D02*
X38177066Y-27585864D01*
X38177066Y-27585864D02*
X38081828Y-27633483D01*
X38081828Y-27633483D02*
X38034209Y-27728721D01*
X38034209Y-27728721D02*
X38034209Y-28252531D01*
X36938970Y-27585864D02*
X36558018Y-27585864D01*
X36796113Y-27252531D02*
X36796113Y-28109673D01*
X36796113Y-28109673D02*
X36748494Y-28204912D01*
X36748494Y-28204912D02*
X36653256Y-28252531D01*
X36653256Y-28252531D02*
X36558018Y-28252531D01*
X36224684Y-28252531D02*
X36224684Y-27252531D01*
X35796113Y-28252531D02*
X35796113Y-27728721D01*
X35796113Y-27728721D02*
X35843732Y-27633483D01*
X35843732Y-27633483D02*
X35938970Y-27585864D01*
X35938970Y-27585864D02*
X36081827Y-27585864D01*
X36081827Y-27585864D02*
X36177065Y-27633483D01*
X36177065Y-27633483D02*
X36224684Y-27681102D01*
X34938970Y-28204912D02*
X35034208Y-28252531D01*
X35034208Y-28252531D02*
X35224684Y-28252531D01*
X35224684Y-28252531D02*
X35319922Y-28204912D01*
X35319922Y-28204912D02*
X35367541Y-28109673D01*
X35367541Y-28109673D02*
X35367541Y-27728721D01*
X35367541Y-27728721D02*
X35319922Y-27633483D01*
X35319922Y-27633483D02*
X35224684Y-27585864D01*
X35224684Y-27585864D02*
X35034208Y-27585864D01*
X35034208Y-27585864D02*
X34938970Y-27633483D01*
X34938970Y-27633483D02*
X34891351Y-27728721D01*
X34891351Y-27728721D02*
X34891351Y-27823959D01*
X34891351Y-27823959D02*
X35367541Y-27919197D01*
X77891353Y-29195808D02*
X77700877Y-29862475D01*
X77700877Y-29862475D02*
X77510401Y-29386284D01*
X77510401Y-29386284D02*
X77319925Y-29862475D01*
X77319925Y-29862475D02*
X77129449Y-29195808D01*
X76605639Y-29862475D02*
X76700877Y-29814856D01*
X76700877Y-29814856D02*
X76748496Y-29767236D01*
X76748496Y-29767236D02*
X76796115Y-29671998D01*
X76796115Y-29671998D02*
X76796115Y-29386284D01*
X76796115Y-29386284D02*
X76748496Y-29291046D01*
X76748496Y-29291046D02*
X76700877Y-29243427D01*
X76700877Y-29243427D02*
X76605639Y-29195808D01*
X76605639Y-29195808D02*
X76462782Y-29195808D01*
X76462782Y-29195808D02*
X76367544Y-29243427D01*
X76367544Y-29243427D02*
X76319925Y-29291046D01*
X76319925Y-29291046D02*
X76272306Y-29386284D01*
X76272306Y-29386284D02*
X76272306Y-29671998D01*
X76272306Y-29671998D02*
X76319925Y-29767236D01*
X76319925Y-29767236D02*
X76367544Y-29814856D01*
X76367544Y-29814856D02*
X76462782Y-29862475D01*
X76462782Y-29862475D02*
X76605639Y-29862475D01*
X75843734Y-29862475D02*
X75843734Y-29195808D01*
X75843734Y-29386284D02*
X75796115Y-29291046D01*
X75796115Y-29291046D02*
X75748496Y-29243427D01*
X75748496Y-29243427D02*
X75653258Y-29195808D01*
X75653258Y-29195808D02*
X75558020Y-29195808D01*
X75081829Y-29862475D02*
X75177067Y-29814856D01*
X75177067Y-29814856D02*
X75224686Y-29719617D01*
X75224686Y-29719617D02*
X75224686Y-28862475D01*
X74272305Y-29862475D02*
X74272305Y-28862475D01*
X74272305Y-29814856D02*
X74367543Y-29862475D01*
X74367543Y-29862475D02*
X74558019Y-29862475D01*
X74558019Y-29862475D02*
X74653257Y-29814856D01*
X74653257Y-29814856D02*
X74700876Y-29767236D01*
X74700876Y-29767236D02*
X74748495Y-29671998D01*
X74748495Y-29671998D02*
X74748495Y-29386284D01*
X74748495Y-29386284D02*
X74700876Y-29291046D01*
X74700876Y-29291046D02*
X74653257Y-29243427D01*
X74653257Y-29243427D02*
X74558019Y-29195808D01*
X74558019Y-29195808D02*
X74367543Y-29195808D01*
X74367543Y-29195808D02*
X74272305Y-29243427D01*
X73034209Y-29862475D02*
X73034209Y-28862475D01*
X72605638Y-29862475D02*
X72605638Y-29338665D01*
X72605638Y-29338665D02*
X72653257Y-29243427D01*
X72653257Y-29243427D02*
X72748495Y-29195808D01*
X72748495Y-29195808D02*
X72891352Y-29195808D01*
X72891352Y-29195808D02*
X72986590Y-29243427D01*
X72986590Y-29243427D02*
X73034209Y-29291046D01*
X71700876Y-29862475D02*
X71700876Y-29338665D01*
X71700876Y-29338665D02*
X71748495Y-29243427D01*
X71748495Y-29243427D02*
X71843733Y-29195808D01*
X71843733Y-29195808D02*
X72034209Y-29195808D01*
X72034209Y-29195808D02*
X72129447Y-29243427D01*
X71700876Y-29814856D02*
X71796114Y-29862475D01*
X71796114Y-29862475D02*
X72034209Y-29862475D01*
X72034209Y-29862475D02*
X72129447Y-29814856D01*
X72129447Y-29814856D02*
X72177066Y-29719617D01*
X72177066Y-29719617D02*
X72177066Y-29624379D01*
X72177066Y-29624379D02*
X72129447Y-29529141D01*
X72129447Y-29529141D02*
X72034209Y-29481522D01*
X72034209Y-29481522D02*
X71796114Y-29481522D01*
X71796114Y-29481522D02*
X71700876Y-29433903D01*
X71272304Y-29814856D02*
X71177066Y-29862475D01*
X71177066Y-29862475D02*
X70986590Y-29862475D01*
X70986590Y-29862475D02*
X70891352Y-29814856D01*
X70891352Y-29814856D02*
X70843733Y-29719617D01*
X70843733Y-29719617D02*
X70843733Y-29671998D01*
X70843733Y-29671998D02*
X70891352Y-29576760D01*
X70891352Y-29576760D02*
X70986590Y-29529141D01*
X70986590Y-29529141D02*
X71129447Y-29529141D01*
X71129447Y-29529141D02*
X71224685Y-29481522D01*
X71224685Y-29481522D02*
X71272304Y-29386284D01*
X71272304Y-29386284D02*
X71272304Y-29338665D01*
X71272304Y-29338665D02*
X71224685Y-29243427D01*
X71224685Y-29243427D02*
X71129447Y-29195808D01*
X71129447Y-29195808D02*
X70986590Y-29195808D01*
X70986590Y-29195808D02*
X70891352Y-29243427D01*
X69796113Y-29195808D02*
X69415161Y-29195808D01*
X69653256Y-28862475D02*
X69653256Y-29719617D01*
X69653256Y-29719617D02*
X69605637Y-29814856D01*
X69605637Y-29814856D02*
X69510399Y-29862475D01*
X69510399Y-29862475D02*
X69415161Y-29862475D01*
X68653256Y-29195808D02*
X68653256Y-29862475D01*
X69081827Y-29195808D02*
X69081827Y-29719617D01*
X69081827Y-29719617D02*
X69034208Y-29814856D01*
X69034208Y-29814856D02*
X68938970Y-29862475D01*
X68938970Y-29862475D02*
X68796113Y-29862475D01*
X68796113Y-29862475D02*
X68700875Y-29814856D01*
X68700875Y-29814856D02*
X68653256Y-29767236D01*
X68177065Y-29862475D02*
X68177065Y-29195808D01*
X68177065Y-29386284D02*
X68129446Y-29291046D01*
X68129446Y-29291046D02*
X68081827Y-29243427D01*
X68081827Y-29243427D02*
X67986589Y-29195808D01*
X67986589Y-29195808D02*
X67891351Y-29195808D01*
X67558017Y-29195808D02*
X67558017Y-29862475D01*
X67558017Y-29291046D02*
X67510398Y-29243427D01*
X67510398Y-29243427D02*
X67415160Y-29195808D01*
X67415160Y-29195808D02*
X67272303Y-29195808D01*
X67272303Y-29195808D02*
X67177065Y-29243427D01*
X67177065Y-29243427D02*
X67129446Y-29338665D01*
X67129446Y-29338665D02*
X67129446Y-29862475D01*
X66272303Y-29814856D02*
X66367541Y-29862475D01*
X66367541Y-29862475D02*
X66558017Y-29862475D01*
X66558017Y-29862475D02*
X66653255Y-29814856D01*
X66653255Y-29814856D02*
X66700874Y-29719617D01*
X66700874Y-29719617D02*
X66700874Y-29338665D01*
X66700874Y-29338665D02*
X66653255Y-29243427D01*
X66653255Y-29243427D02*
X66558017Y-29195808D01*
X66558017Y-29195808D02*
X66367541Y-29195808D01*
X66367541Y-29195808D02*
X66272303Y-29243427D01*
X66272303Y-29243427D02*
X66224684Y-29338665D01*
X66224684Y-29338665D02*
X66224684Y-29433903D01*
X66224684Y-29433903D02*
X66700874Y-29529141D01*
X65367541Y-29862475D02*
X65367541Y-28862475D01*
X65367541Y-29814856D02*
X65462779Y-29862475D01*
X65462779Y-29862475D02*
X65653255Y-29862475D01*
X65653255Y-29862475D02*
X65748493Y-29814856D01*
X65748493Y-29814856D02*
X65796112Y-29767236D01*
X65796112Y-29767236D02*
X65843731Y-29671998D01*
X65843731Y-29671998D02*
X65843731Y-29386284D01*
X65843731Y-29386284D02*
X65796112Y-29291046D01*
X65796112Y-29291046D02*
X65748493Y-29243427D01*
X65748493Y-29243427D02*
X65653255Y-29195808D01*
X65653255Y-29195808D02*
X65462779Y-29195808D01*
X65462779Y-29195808D02*
X65367541Y-29243427D01*
X63700874Y-29195808D02*
X63700874Y-29862475D01*
X64129445Y-29195808D02*
X64129445Y-29719617D01*
X64129445Y-29719617D02*
X64081826Y-29814856D01*
X64081826Y-29814856D02*
X63986588Y-29862475D01*
X63986588Y-29862475D02*
X63843731Y-29862475D01*
X63843731Y-29862475D02*
X63748493Y-29814856D01*
X63748493Y-29814856D02*
X63700874Y-29767236D01*
X63224683Y-29195808D02*
X63224683Y-30195808D01*
X63224683Y-29243427D02*
X63129445Y-29195808D01*
X63129445Y-29195808D02*
X62938969Y-29195808D01*
X62938969Y-29195808D02*
X62843731Y-29243427D01*
X62843731Y-29243427D02*
X62796112Y-29291046D01*
X62796112Y-29291046D02*
X62748493Y-29386284D01*
X62748493Y-29386284D02*
X62748493Y-29671998D01*
X62748493Y-29671998D02*
X62796112Y-29767236D01*
X62796112Y-29767236D02*
X62843731Y-29814856D01*
X62843731Y-29814856D02*
X62938969Y-29862475D01*
X62938969Y-29862475D02*
X63129445Y-29862475D01*
X63129445Y-29862475D02*
X63224683Y-29814856D01*
X62367540Y-29814856D02*
X62272302Y-29862475D01*
X62272302Y-29862475D02*
X62081826Y-29862475D01*
X62081826Y-29862475D02*
X61986588Y-29814856D01*
X61986588Y-29814856D02*
X61938969Y-29719617D01*
X61938969Y-29719617D02*
X61938969Y-29671998D01*
X61938969Y-29671998D02*
X61986588Y-29576760D01*
X61986588Y-29576760D02*
X62081826Y-29529141D01*
X62081826Y-29529141D02*
X62224683Y-29529141D01*
X62224683Y-29529141D02*
X62319921Y-29481522D01*
X62319921Y-29481522D02*
X62367540Y-29386284D01*
X62367540Y-29386284D02*
X62367540Y-29338665D01*
X62367540Y-29338665D02*
X62319921Y-29243427D01*
X62319921Y-29243427D02*
X62224683Y-29195808D01*
X62224683Y-29195808D02*
X62081826Y-29195808D01*
X62081826Y-29195808D02*
X61986588Y-29243427D01*
X61510397Y-29862475D02*
X61510397Y-29195808D01*
X61510397Y-28862475D02*
X61558016Y-28910094D01*
X61558016Y-28910094D02*
X61510397Y-28957713D01*
X61510397Y-28957713D02*
X61462778Y-28910094D01*
X61462778Y-28910094D02*
X61510397Y-28862475D01*
X61510397Y-28862475D02*
X61510397Y-28957713D01*
X60605636Y-29862475D02*
X60605636Y-28862475D01*
X60605636Y-29814856D02*
X60700874Y-29862475D01*
X60700874Y-29862475D02*
X60891350Y-29862475D01*
X60891350Y-29862475D02*
X60986588Y-29814856D01*
X60986588Y-29814856D02*
X61034207Y-29767236D01*
X61034207Y-29767236D02*
X61081826Y-29671998D01*
X61081826Y-29671998D02*
X61081826Y-29386284D01*
X61081826Y-29386284D02*
X61034207Y-29291046D01*
X61034207Y-29291046D02*
X60986588Y-29243427D01*
X60986588Y-29243427D02*
X60891350Y-29195808D01*
X60891350Y-29195808D02*
X60700874Y-29195808D01*
X60700874Y-29195808D02*
X60605636Y-29243427D01*
X59748493Y-29814856D02*
X59843731Y-29862475D01*
X59843731Y-29862475D02*
X60034207Y-29862475D01*
X60034207Y-29862475D02*
X60129445Y-29814856D01*
X60129445Y-29814856D02*
X60177064Y-29719617D01*
X60177064Y-29719617D02*
X60177064Y-29338665D01*
X60177064Y-29338665D02*
X60129445Y-29243427D01*
X60129445Y-29243427D02*
X60034207Y-29195808D01*
X60034207Y-29195808D02*
X59843731Y-29195808D01*
X59843731Y-29195808D02*
X59748493Y-29243427D01*
X59748493Y-29243427D02*
X59700874Y-29338665D01*
X59700874Y-29338665D02*
X59700874Y-29433903D01*
X59700874Y-29433903D02*
X60177064Y-29529141D01*
X58081826Y-29862475D02*
X58081826Y-28862475D01*
X58081826Y-29814856D02*
X58177064Y-29862475D01*
X58177064Y-29862475D02*
X58367540Y-29862475D01*
X58367540Y-29862475D02*
X58462778Y-29814856D01*
X58462778Y-29814856D02*
X58510397Y-29767236D01*
X58510397Y-29767236D02*
X58558016Y-29671998D01*
X58558016Y-29671998D02*
X58558016Y-29386284D01*
X58558016Y-29386284D02*
X58510397Y-29291046D01*
X58510397Y-29291046D02*
X58462778Y-29243427D01*
X58462778Y-29243427D02*
X58367540Y-29195808D01*
X58367540Y-29195808D02*
X58177064Y-29195808D01*
X58177064Y-29195808D02*
X58081826Y-29243427D01*
X57462778Y-29862475D02*
X57558016Y-29814856D01*
X57558016Y-29814856D02*
X57605635Y-29767236D01*
X57605635Y-29767236D02*
X57653254Y-29671998D01*
X57653254Y-29671998D02*
X57653254Y-29386284D01*
X57653254Y-29386284D02*
X57605635Y-29291046D01*
X57605635Y-29291046D02*
X57558016Y-29243427D01*
X57558016Y-29243427D02*
X57462778Y-29195808D01*
X57462778Y-29195808D02*
X57319921Y-29195808D01*
X57319921Y-29195808D02*
X57224683Y-29243427D01*
X57224683Y-29243427D02*
X57177064Y-29291046D01*
X57177064Y-29291046D02*
X57129445Y-29386284D01*
X57129445Y-29386284D02*
X57129445Y-29671998D01*
X57129445Y-29671998D02*
X57177064Y-29767236D01*
X57177064Y-29767236D02*
X57224683Y-29814856D01*
X57224683Y-29814856D02*
X57319921Y-29862475D01*
X57319921Y-29862475D02*
X57462778Y-29862475D01*
X56796111Y-29195808D02*
X56605635Y-29862475D01*
X56605635Y-29862475D02*
X56415159Y-29386284D01*
X56415159Y-29386284D02*
X56224683Y-29862475D01*
X56224683Y-29862475D02*
X56034207Y-29195808D01*
X55653254Y-29195808D02*
X55653254Y-29862475D01*
X55653254Y-29291046D02*
X55605635Y-29243427D01*
X55605635Y-29243427D02*
X55510397Y-29195808D01*
X55510397Y-29195808D02*
X55367540Y-29195808D01*
X55367540Y-29195808D02*
X55272302Y-29243427D01*
X55272302Y-29243427D02*
X55224683Y-29338665D01*
X55224683Y-29338665D02*
X55224683Y-29862475D01*
X53843730Y-29862475D02*
X53938968Y-29814856D01*
X53938968Y-29814856D02*
X53986587Y-29767236D01*
X53986587Y-29767236D02*
X54034206Y-29671998D01*
X54034206Y-29671998D02*
X54034206Y-29386284D01*
X54034206Y-29386284D02*
X53986587Y-29291046D01*
X53986587Y-29291046D02*
X53938968Y-29243427D01*
X53938968Y-29243427D02*
X53843730Y-29195808D01*
X53843730Y-29195808D02*
X53700873Y-29195808D01*
X53700873Y-29195808D02*
X53605635Y-29243427D01*
X53605635Y-29243427D02*
X53558016Y-29291046D01*
X53558016Y-29291046D02*
X53510397Y-29386284D01*
X53510397Y-29386284D02*
X53510397Y-29671998D01*
X53510397Y-29671998D02*
X53558016Y-29767236D01*
X53558016Y-29767236D02*
X53605635Y-29814856D01*
X53605635Y-29814856D02*
X53700873Y-29862475D01*
X53700873Y-29862475D02*
X53843730Y-29862475D01*
X53081825Y-29862475D02*
X53081825Y-29195808D01*
X53081825Y-29386284D02*
X53034206Y-29291046D01*
X53034206Y-29291046D02*
X52986587Y-29243427D01*
X52986587Y-29243427D02*
X52891349Y-29195808D01*
X52891349Y-29195808D02*
X52796111Y-29195808D01*
X51796110Y-29195808D02*
X51558015Y-29862475D01*
X51319920Y-29195808D02*
X51558015Y-29862475D01*
X51558015Y-29862475D02*
X51653253Y-30100570D01*
X51653253Y-30100570D02*
X51700872Y-30148189D01*
X51700872Y-30148189D02*
X51796110Y-30195808D01*
X50796110Y-29862475D02*
X50891348Y-29814856D01*
X50891348Y-29814856D02*
X50938967Y-29767236D01*
X50938967Y-29767236D02*
X50986586Y-29671998D01*
X50986586Y-29671998D02*
X50986586Y-29386284D01*
X50986586Y-29386284D02*
X50938967Y-29291046D01*
X50938967Y-29291046D02*
X50891348Y-29243427D01*
X50891348Y-29243427D02*
X50796110Y-29195808D01*
X50796110Y-29195808D02*
X50653253Y-29195808D01*
X50653253Y-29195808D02*
X50558015Y-29243427D01*
X50558015Y-29243427D02*
X50510396Y-29291046D01*
X50510396Y-29291046D02*
X50462777Y-29386284D01*
X50462777Y-29386284D02*
X50462777Y-29671998D01*
X50462777Y-29671998D02*
X50510396Y-29767236D01*
X50510396Y-29767236D02*
X50558015Y-29814856D01*
X50558015Y-29814856D02*
X50653253Y-29862475D01*
X50653253Y-29862475D02*
X50796110Y-29862475D01*
X49605634Y-29195808D02*
X49605634Y-29862475D01*
X50034205Y-29195808D02*
X50034205Y-29719617D01*
X50034205Y-29719617D02*
X49986586Y-29814856D01*
X49986586Y-29814856D02*
X49891348Y-29862475D01*
X49891348Y-29862475D02*
X49748491Y-29862475D01*
X49748491Y-29862475D02*
X49653253Y-29814856D01*
X49653253Y-29814856D02*
X49605634Y-29767236D01*
X49081824Y-28862475D02*
X49177062Y-29052951D01*
X48748491Y-29195808D02*
X48510396Y-29862475D01*
X48510396Y-29862475D02*
X48272301Y-29195808D01*
X47510396Y-29814856D02*
X47605634Y-29862475D01*
X47605634Y-29862475D02*
X47796110Y-29862475D01*
X47796110Y-29862475D02*
X47891348Y-29814856D01*
X47891348Y-29814856D02*
X47938967Y-29719617D01*
X47938967Y-29719617D02*
X47938967Y-29338665D01*
X47938967Y-29338665D02*
X47891348Y-29243427D01*
X47891348Y-29243427D02*
X47796110Y-29195808D01*
X47796110Y-29195808D02*
X47605634Y-29195808D01*
X47605634Y-29195808D02*
X47510396Y-29243427D01*
X47510396Y-29243427D02*
X47462777Y-29338665D01*
X47462777Y-29338665D02*
X47462777Y-29433903D01*
X47462777Y-29433903D02*
X47938967Y-29529141D01*
X47034205Y-29767236D02*
X46986586Y-29814856D01*
X46986586Y-29814856D02*
X47034205Y-29862475D01*
X47034205Y-29862475D02*
X47081824Y-29814856D01*
X47081824Y-29814856D02*
X47034205Y-29767236D01*
X47034205Y-29767236D02*
X47034205Y-29862475D01*
X46558015Y-29767236D02*
X46510396Y-29814856D01*
X46510396Y-29814856D02*
X46558015Y-29862475D01*
X46558015Y-29862475D02*
X46605634Y-29814856D01*
X46605634Y-29814856D02*
X46558015Y-29767236D01*
X46558015Y-29767236D02*
X46558015Y-29862475D01*
X46081825Y-29767236D02*
X46034206Y-29814856D01*
X46034206Y-29814856D02*
X46081825Y-29862475D01*
X46081825Y-29862475D02*
X46129444Y-29814856D01*
X46129444Y-29814856D02*
X46081825Y-29767236D01*
X46081825Y-29767236D02*
X46081825Y-29862475D01*
X77891353Y-30805752D02*
X77653258Y-31472419D01*
X77653258Y-31472419D02*
X77415163Y-30805752D01*
X76891353Y-31472419D02*
X76986591Y-31424800D01*
X76986591Y-31424800D02*
X77034210Y-31377180D01*
X77034210Y-31377180D02*
X77081829Y-31281942D01*
X77081829Y-31281942D02*
X77081829Y-30996228D01*
X77081829Y-30996228D02*
X77034210Y-30900990D01*
X77034210Y-30900990D02*
X76986591Y-30853371D01*
X76986591Y-30853371D02*
X76891353Y-30805752D01*
X76891353Y-30805752D02*
X76748496Y-30805752D01*
X76748496Y-30805752D02*
X76653258Y-30853371D01*
X76653258Y-30853371D02*
X76605639Y-30900990D01*
X76605639Y-30900990D02*
X76558020Y-30996228D01*
X76558020Y-30996228D02*
X76558020Y-31281942D01*
X76558020Y-31281942D02*
X76605639Y-31377180D01*
X76605639Y-31377180D02*
X76653258Y-31424800D01*
X76653258Y-31424800D02*
X76748496Y-31472419D01*
X76748496Y-31472419D02*
X76891353Y-31472419D01*
X76129448Y-31472419D02*
X76129448Y-30805752D01*
X76129448Y-30472419D02*
X76177067Y-30520038D01*
X76177067Y-30520038D02*
X76129448Y-30567657D01*
X76129448Y-30567657D02*
X76081829Y-30520038D01*
X76081829Y-30520038D02*
X76129448Y-30472419D01*
X76129448Y-30472419D02*
X76129448Y-30567657D01*
X75224687Y-31472419D02*
X75224687Y-30472419D01*
X75224687Y-31424800D02*
X75319925Y-31472419D01*
X75319925Y-31472419D02*
X75510401Y-31472419D01*
X75510401Y-31472419D02*
X75605639Y-31424800D01*
X75605639Y-31424800D02*
X75653258Y-31377180D01*
X75653258Y-31377180D02*
X75700877Y-31281942D01*
X75700877Y-31281942D02*
X75700877Y-30996228D01*
X75700877Y-30996228D02*
X75653258Y-30900990D01*
X75653258Y-30900990D02*
X75605639Y-30853371D01*
X75605639Y-30853371D02*
X75510401Y-30805752D01*
X75510401Y-30805752D02*
X75319925Y-30805752D01*
X75319925Y-30805752D02*
X75224687Y-30853371D01*
X74367544Y-31424800D02*
X74462782Y-31472419D01*
X74462782Y-31472419D02*
X74653258Y-31472419D01*
X74653258Y-31472419D02*
X74748496Y-31424800D01*
X74748496Y-31424800D02*
X74796115Y-31329561D01*
X74796115Y-31329561D02*
X74796115Y-30948609D01*
X74796115Y-30948609D02*
X74748496Y-30853371D01*
X74748496Y-30853371D02*
X74653258Y-30805752D01*
X74653258Y-30805752D02*
X74462782Y-30805752D01*
X74462782Y-30805752D02*
X74367544Y-30853371D01*
X74367544Y-30853371D02*
X74319925Y-30948609D01*
X74319925Y-30948609D02*
X74319925Y-31043847D01*
X74319925Y-31043847D02*
X74796115Y-31139085D01*
X73462782Y-31472419D02*
X73462782Y-30472419D01*
X73462782Y-31424800D02*
X73558020Y-31472419D01*
X73558020Y-31472419D02*
X73748496Y-31472419D01*
X73748496Y-31472419D02*
X73843734Y-31424800D01*
X73843734Y-31424800D02*
X73891353Y-31377180D01*
X73891353Y-31377180D02*
X73938972Y-31281942D01*
X73938972Y-31281942D02*
X73938972Y-30996228D01*
X73938972Y-30996228D02*
X73891353Y-30900990D01*
X73891353Y-30900990D02*
X73843734Y-30853371D01*
X73843734Y-30853371D02*
X73748496Y-30805752D01*
X73748496Y-30805752D02*
X73558020Y-30805752D01*
X73558020Y-30805752D02*
X73462782Y-30853371D01*
X72319924Y-30805752D02*
X72081829Y-31472419D01*
X71843734Y-30805752D02*
X72081829Y-31472419D01*
X72081829Y-31472419D02*
X72177067Y-31710514D01*
X72177067Y-31710514D02*
X72224686Y-31758133D01*
X72224686Y-31758133D02*
X72319924Y-31805752D01*
X71319924Y-31472419D02*
X71415162Y-31424800D01*
X71415162Y-31424800D02*
X71462781Y-31377180D01*
X71462781Y-31377180D02*
X71510400Y-31281942D01*
X71510400Y-31281942D02*
X71510400Y-30996228D01*
X71510400Y-30996228D02*
X71462781Y-30900990D01*
X71462781Y-30900990D02*
X71415162Y-30853371D01*
X71415162Y-30853371D02*
X71319924Y-30805752D01*
X71319924Y-30805752D02*
X71177067Y-30805752D01*
X71177067Y-30805752D02*
X71081829Y-30853371D01*
X71081829Y-30853371D02*
X71034210Y-30900990D01*
X71034210Y-30900990D02*
X70986591Y-30996228D01*
X70986591Y-30996228D02*
X70986591Y-31281942D01*
X70986591Y-31281942D02*
X71034210Y-31377180D01*
X71034210Y-31377180D02*
X71081829Y-31424800D01*
X71081829Y-31424800D02*
X71177067Y-31472419D01*
X71177067Y-31472419D02*
X71319924Y-31472419D01*
X70129448Y-30805752D02*
X70129448Y-31472419D01*
X70558019Y-30805752D02*
X70558019Y-31329561D01*
X70558019Y-31329561D02*
X70510400Y-31424800D01*
X70510400Y-31424800D02*
X70415162Y-31472419D01*
X70415162Y-31472419D02*
X70272305Y-31472419D01*
X70272305Y-31472419D02*
X70177067Y-31424800D01*
X70177067Y-31424800D02*
X70129448Y-31377180D01*
X69653257Y-31472419D02*
X69653257Y-30805752D01*
X69653257Y-30996228D02*
X69605638Y-30900990D01*
X69605638Y-30900990D02*
X69558019Y-30853371D01*
X69558019Y-30853371D02*
X69462781Y-30805752D01*
X69462781Y-30805752D02*
X69367543Y-30805752D01*
X68272304Y-30805752D02*
X68272304Y-31472419D01*
X68272304Y-30900990D02*
X68224685Y-30853371D01*
X68224685Y-30853371D02*
X68129447Y-30805752D01*
X68129447Y-30805752D02*
X67986590Y-30805752D01*
X67986590Y-30805752D02*
X67891352Y-30853371D01*
X67891352Y-30853371D02*
X67843733Y-30948609D01*
X67843733Y-30948609D02*
X67843733Y-31472419D01*
X67224685Y-31472419D02*
X67319923Y-31424800D01*
X67319923Y-31424800D02*
X67367542Y-31377180D01*
X67367542Y-31377180D02*
X67415161Y-31281942D01*
X67415161Y-31281942D02*
X67415161Y-30996228D01*
X67415161Y-30996228D02*
X67367542Y-30900990D01*
X67367542Y-30900990D02*
X67319923Y-30853371D01*
X67319923Y-30853371D02*
X67224685Y-30805752D01*
X67224685Y-30805752D02*
X67081828Y-30805752D01*
X67081828Y-30805752D02*
X66986590Y-30853371D01*
X66986590Y-30853371D02*
X66938971Y-30900990D01*
X66938971Y-30900990D02*
X66891352Y-30996228D01*
X66891352Y-30996228D02*
X66891352Y-31281942D01*
X66891352Y-31281942D02*
X66938971Y-31377180D01*
X66938971Y-31377180D02*
X66986590Y-31424800D01*
X66986590Y-31424800D02*
X67081828Y-31472419D01*
X67081828Y-31472419D02*
X67224685Y-31472419D01*
X66462780Y-30805752D02*
X66462780Y-31472419D01*
X66462780Y-30900990D02*
X66415161Y-30853371D01*
X66415161Y-30853371D02*
X66319923Y-30805752D01*
X66319923Y-30805752D02*
X66177066Y-30805752D01*
X66177066Y-30805752D02*
X66081828Y-30853371D01*
X66081828Y-30853371D02*
X66034209Y-30948609D01*
X66034209Y-30948609D02*
X66034209Y-31472419D01*
X65558018Y-31091466D02*
X64796114Y-31091466D01*
X63938971Y-31424800D02*
X64034209Y-31472419D01*
X64034209Y-31472419D02*
X64224685Y-31472419D01*
X64224685Y-31472419D02*
X64319923Y-31424800D01*
X64319923Y-31424800D02*
X64367542Y-31329561D01*
X64367542Y-31329561D02*
X64367542Y-30948609D01*
X64367542Y-30948609D02*
X64319923Y-30853371D01*
X64319923Y-30853371D02*
X64224685Y-30805752D01*
X64224685Y-30805752D02*
X64034209Y-30805752D01*
X64034209Y-30805752D02*
X63938971Y-30853371D01*
X63938971Y-30853371D02*
X63891352Y-30948609D01*
X63891352Y-30948609D02*
X63891352Y-31043847D01*
X63891352Y-31043847D02*
X64367542Y-31139085D01*
X63558018Y-31472419D02*
X63034209Y-30805752D01*
X63558018Y-30805752D02*
X63034209Y-31472419D01*
X62653256Y-31472419D02*
X62653256Y-30805752D01*
X62653256Y-30472419D02*
X62700875Y-30520038D01*
X62700875Y-30520038D02*
X62653256Y-30567657D01*
X62653256Y-30567657D02*
X62605637Y-30520038D01*
X62605637Y-30520038D02*
X62653256Y-30472419D01*
X62653256Y-30472419D02*
X62653256Y-30567657D01*
X62224685Y-31424800D02*
X62129447Y-31472419D01*
X62129447Y-31472419D02*
X61938971Y-31472419D01*
X61938971Y-31472419D02*
X61843733Y-31424800D01*
X61843733Y-31424800D02*
X61796114Y-31329561D01*
X61796114Y-31329561D02*
X61796114Y-31281942D01*
X61796114Y-31281942D02*
X61843733Y-31186704D01*
X61843733Y-31186704D02*
X61938971Y-31139085D01*
X61938971Y-31139085D02*
X62081828Y-31139085D01*
X62081828Y-31139085D02*
X62177066Y-31091466D01*
X62177066Y-31091466D02*
X62224685Y-30996228D01*
X62224685Y-30996228D02*
X62224685Y-30948609D01*
X62224685Y-30948609D02*
X62177066Y-30853371D01*
X62177066Y-30853371D02*
X62081828Y-30805752D01*
X62081828Y-30805752D02*
X61938971Y-30805752D01*
X61938971Y-30805752D02*
X61843733Y-30853371D01*
X61510399Y-30805752D02*
X61129447Y-30805752D01*
X61367542Y-30472419D02*
X61367542Y-31329561D01*
X61367542Y-31329561D02*
X61319923Y-31424800D01*
X61319923Y-31424800D02*
X61224685Y-31472419D01*
X61224685Y-31472419D02*
X61129447Y-31472419D01*
X60415161Y-31424800D02*
X60510399Y-31472419D01*
X60510399Y-31472419D02*
X60700875Y-31472419D01*
X60700875Y-31472419D02*
X60796113Y-31424800D01*
X60796113Y-31424800D02*
X60843732Y-31329561D01*
X60843732Y-31329561D02*
X60843732Y-30948609D01*
X60843732Y-30948609D02*
X60796113Y-30853371D01*
X60796113Y-30853371D02*
X60700875Y-30805752D01*
X60700875Y-30805752D02*
X60510399Y-30805752D01*
X60510399Y-30805752D02*
X60415161Y-30853371D01*
X60415161Y-30853371D02*
X60367542Y-30948609D01*
X60367542Y-30948609D02*
X60367542Y-31043847D01*
X60367542Y-31043847D02*
X60843732Y-31139085D01*
X59938970Y-30805752D02*
X59938970Y-31472419D01*
X59938970Y-30900990D02*
X59891351Y-30853371D01*
X59891351Y-30853371D02*
X59796113Y-30805752D01*
X59796113Y-30805752D02*
X59653256Y-30805752D01*
X59653256Y-30805752D02*
X59558018Y-30853371D01*
X59558018Y-30853371D02*
X59510399Y-30948609D01*
X59510399Y-30948609D02*
X59510399Y-31472419D01*
X59177065Y-30805752D02*
X58796113Y-30805752D01*
X59034208Y-30472419D02*
X59034208Y-31329561D01*
X59034208Y-31329561D02*
X58986589Y-31424800D01*
X58986589Y-31424800D02*
X58891351Y-31472419D01*
X58891351Y-31472419D02*
X58796113Y-31472419D01*
X57796112Y-30805752D02*
X57605636Y-31472419D01*
X57605636Y-31472419D02*
X57415160Y-30996228D01*
X57415160Y-30996228D02*
X57224684Y-31472419D01*
X57224684Y-31472419D02*
X57034208Y-30805752D01*
X56224684Y-31472419D02*
X56224684Y-30948609D01*
X56224684Y-30948609D02*
X56272303Y-30853371D01*
X56272303Y-30853371D02*
X56367541Y-30805752D01*
X56367541Y-30805752D02*
X56558017Y-30805752D01*
X56558017Y-30805752D02*
X56653255Y-30853371D01*
X56224684Y-31424800D02*
X56319922Y-31472419D01*
X56319922Y-31472419D02*
X56558017Y-31472419D01*
X56558017Y-31472419D02*
X56653255Y-31424800D01*
X56653255Y-31424800D02*
X56700874Y-31329561D01*
X56700874Y-31329561D02*
X56700874Y-31234323D01*
X56700874Y-31234323D02*
X56653255Y-31139085D01*
X56653255Y-31139085D02*
X56558017Y-31091466D01*
X56558017Y-31091466D02*
X56319922Y-31091466D01*
X56319922Y-31091466D02*
X56224684Y-31043847D01*
X55748493Y-31472419D02*
X55748493Y-30805752D01*
X55748493Y-30996228D02*
X55700874Y-30900990D01*
X55700874Y-30900990D02*
X55653255Y-30853371D01*
X55653255Y-30853371D02*
X55558017Y-30805752D01*
X55558017Y-30805752D02*
X55462779Y-30805752D01*
X55129445Y-31472419D02*
X55129445Y-30805752D01*
X55129445Y-30996228D02*
X55081826Y-30900990D01*
X55081826Y-30900990D02*
X55034207Y-30853371D01*
X55034207Y-30853371D02*
X54938969Y-30805752D01*
X54938969Y-30805752D02*
X54843731Y-30805752D01*
X54081826Y-31472419D02*
X54081826Y-30948609D01*
X54081826Y-30948609D02*
X54129445Y-30853371D01*
X54129445Y-30853371D02*
X54224683Y-30805752D01*
X54224683Y-30805752D02*
X54415159Y-30805752D01*
X54415159Y-30805752D02*
X54510397Y-30853371D01*
X54081826Y-31424800D02*
X54177064Y-31472419D01*
X54177064Y-31472419D02*
X54415159Y-31472419D01*
X54415159Y-31472419D02*
X54510397Y-31424800D01*
X54510397Y-31424800D02*
X54558016Y-31329561D01*
X54558016Y-31329561D02*
X54558016Y-31234323D01*
X54558016Y-31234323D02*
X54510397Y-31139085D01*
X54510397Y-31139085D02*
X54415159Y-31091466D01*
X54415159Y-31091466D02*
X54177064Y-31091466D01*
X54177064Y-31091466D02*
X54081826Y-31043847D01*
X53605635Y-30805752D02*
X53605635Y-31472419D01*
X53605635Y-30900990D02*
X53558016Y-30853371D01*
X53558016Y-30853371D02*
X53462778Y-30805752D01*
X53462778Y-30805752D02*
X53319921Y-30805752D01*
X53319921Y-30805752D02*
X53224683Y-30853371D01*
X53224683Y-30853371D02*
X53177064Y-30948609D01*
X53177064Y-30948609D02*
X53177064Y-31472419D01*
X52843730Y-30805752D02*
X52462778Y-30805752D01*
X52700873Y-30472419D02*
X52700873Y-31329561D01*
X52700873Y-31329561D02*
X52653254Y-31424800D01*
X52653254Y-31424800D02*
X52558016Y-31472419D01*
X52558016Y-31472419D02*
X52462778Y-31472419D01*
X52224682Y-30805752D02*
X51986587Y-31472419D01*
X51748492Y-30805752D02*
X51986587Y-31472419D01*
X51986587Y-31472419D02*
X52081825Y-31710514D01*
X52081825Y-31710514D02*
X52129444Y-31758133D01*
X52129444Y-31758133D02*
X52224682Y-31805752D01*
X51367539Y-31377180D02*
X51319920Y-31424800D01*
X51319920Y-31424800D02*
X51367539Y-31472419D01*
X51367539Y-31472419D02*
X51415158Y-31424800D01*
X51415158Y-31424800D02*
X51367539Y-31377180D01*
X51367539Y-31377180D02*
X51367539Y-31472419D01*
X51367539Y-31091466D02*
X51415158Y-30520038D01*
X51415158Y-30520038D02*
X51367539Y-30472419D01*
X51367539Y-30472419D02*
X51319920Y-30520038D01*
X51319920Y-30520038D02*
X51367539Y-31091466D01*
X51367539Y-31091466D02*
X51367539Y-30472419D01*
M02*
